<svg width="22" height="22" viewBox="0 0 22 22" fill="none" xmlns="http://www.w3.org/2000/svg">
<path d="M20.0129 0.357422H1.94792C1.08256 0.357422 0.382812 1.0406 0.382812 1.88527V20.0248C0.382812 20.8695 1.08256 21.5568 1.94792 21.5568H20.0129C20.8783 21.5568 21.5822 20.8695 21.5822 20.0289V1.88527C21.5822 1.0406 20.8783 0.357422 20.0129 0.357422ZM6.67223 18.4224H3.52545V8.30304H6.67223V18.4224ZM5.09884 6.92426C4.08856 6.92426 3.27288 6.10858 3.27288 5.10244C3.27288 4.09629 4.08856 3.28062 5.09884 3.28062C6.10499 3.28062 6.92066 4.09629 6.92066 5.10244C6.92066 6.10444 6.10499 6.92426 5.09884 6.92426ZM18.4478 18.4224H15.3052V13.5035C15.3052 12.3318 15.2845 10.8205 13.6697 10.8205C12.0342 10.8205 11.7858 12.0999 11.7858 13.4207V18.4224H8.64725V8.30304H11.6615V9.68597H11.7029C12.1211 8.891 13.148 8.05047 14.6758 8.05047C17.8599 8.05047 18.4478 10.1456 18.4478 12.87V18.4224Z" fill="white"/>
</svg>
