<svg width="960" height="957" viewBox="0 0 960 957" fill="none" xmlns="http://www.w3.org/2000/svg">
<g style="mix-blend-mode:overlay" filter="url(#filter0_f_57_269)">
<ellipse cx="534.581" cy="440.833" rx="119.383" ry="117.956" fill="#C41BFF"/>
</g>
<g filter="url(#filter1_f_57_269)">
<path d="M631.709 357.733C621.022 387.94 587.611 403.907 557.084 393.397C526.557 382.886 510.474 349.879 521.161 319.672C531.849 289.465 565.26 273.498 595.787 284.008C626.314 294.518 642.397 327.526 631.709 357.733Z" fill="#4EFF10"/>
</g>
<g style="mix-blend-mode:lighten" opacity="0.5" filter="url(#filter2_f_57_269)">
<path d="M454.367 490.682C442 525.636 403.351 544.118 368.041 531.961C332.732 519.804 314.134 481.613 326.502 446.658C338.869 411.704 377.519 393.223 412.828 405.379C448.137 417.536 466.735 455.727 454.367 490.682Z" fill="#00FF94"/>
</g>
<g style="mix-blend-mode:hard-light" filter="url(#filter3_f_57_269)">
<ellipse cx="466.693" cy="378.05" rx="145.612" ry="141.928" fill="#454ACF"/>
</g>
<g style="mix-blend-mode:color-dodge">
<g style="mix-blend-mode:color-dodge" filter="url(#filter4_b_57_269)">
<path d="M533.511 201.853L676.903 451.195L424.138 592.645L280.746 343.303L533.511 201.853Z" fill="white" fill-opacity="0.05"/>
<path d="M281.432 343.492L533.324 202.531L676.218 451.006L424.325 591.968L281.432 343.492Z" stroke="url(#paint0_linear_57_269)"/>
</g>
<g style="mix-blend-mode:color-dodge" filter="url(#filter5_b_57_269)">
<path d="M497.839 222.333L656.142 416.006L459.81 572.166L301.507 378.492L497.839 222.333Z" fill="white" fill-opacity="0.05"/>
<path d="M302.215 378.568L497.764 223.031L655.434 415.93L459.885 571.467L302.215 378.568Z" stroke="url(#paint1_linear_57_269)"/>
</g>
<g style="mix-blend-mode:color-dodge" filter="url(#filter6_b_57_269)">
<path d="M472.133 243.553L634.631 390.648L485.516 550.945L323.019 403.849L472.133 243.553Z" fill="white" fill-opacity="0.05"/>
<path d="M323.73 403.819L472.164 244.254L633.919 390.678L485.486 550.243L323.73 403.819Z" stroke="url(#paint2_linear_57_269)"/>
</g>
<g style="mix-blend-mode:color-dodge" filter="url(#filter7_b_57_269)">
<path d="M455.073 262.577L615.346 373.82L502.576 531.922L342.303 420.679L455.073 262.577Z" fill="white" fill-opacity="0.05"/>
<path d="M343.004 420.557L455.194 263.269L614.645 373.942L502.456 531.23L343.004 420.557Z" stroke="url(#paint3_linear_57_269)"/>
</g>
<g style="mix-blend-mode:color-dodge" filter="url(#filter8_b_57_269)">
<path d="M438.905 290.774L586.761 357.869L518.745 503.723L370.889 436.628L438.905 290.774Z" fill="white" fill-opacity="0.05"/>
<path d="M371.555 436.381L439.149 291.434L586.094 358.116L518.501 503.063L371.555 436.381Z" stroke="url(#paint4_linear_57_269)"/>
</g>
<g style="mix-blend-mode:color-dodge" filter="url(#filter9_b_57_269)">
<path d="M453.05 299.874L577.536 371.824L504.599 494.624L380.113 422.674L453.05 299.874Z" fill="white" fill-opacity="0.05"/>
<path d="M380.801 422.495L453.228 300.554L576.848 372.003L504.422 493.944L380.801 422.495Z" stroke="url(#paint5_linear_57_269)"/>
</g>
<g style="mix-blend-mode:color-dodge" filter="url(#filter10_b_57_269)">
<path d="M469.391 317.053L560.121 387.942L488.259 477.443L397.529 406.554L469.391 317.053Z" fill="white" fill-opacity="0.05"/>
<path d="M398.236 406.472L469.472 317.751L559.414 388.024L488.178 476.745L398.236 406.472Z" stroke="url(#paint6_linear_57_269)"/>
</g>
</g>
<g style="mix-blend-mode:overlay">
<path d="M147.279 466.427V449.853H156.04V450.635H148.143V457.454H153.472V458.235H148.143V465.646H156.568V466.427H147.279Z" fill="url(#paint7_linear_57_269)"/>
<path d="M223.439 466.427H222.598L213.982 452.671L213.238 451.463V452.671V466.427H212.374V449.853H213.214L221.83 463.61L222.574 464.817V463.61V449.853H223.439V466.427Z" fill="url(#paint8_linear_57_269)"/>
<path d="M279.835 466.427V449.853H280.699V465.646H289.028V466.427H279.835Z" fill="url(#paint9_linear_57_269)"/>
<path d="M343.758 466.427V449.853H344.622V466.427H343.758Z" fill="url(#paint10_linear_57_269)"/>
<path d="M406.976 466.712C405.84 466.712 404.84 466.475 403.975 466.001C403.111 465.512 402.423 464.857 401.911 464.036C401.415 463.215 401.039 462.308 400.783 461.313C400.543 460.319 400.423 459.261 400.423 458.14C400.423 456.972 400.551 455.891 400.807 454.897C401.079 453.886 401.471 452.979 401.983 452.174C402.495 451.369 403.175 450.737 404.023 450.28C404.888 449.806 405.872 449.569 406.976 449.569C408.896 449.569 410.424 450.327 411.56 451.842L410.792 452.34C409.864 451.061 408.592 450.422 406.976 450.422C405.984 450.422 405.112 450.651 404.359 451.108C403.607 451.566 403.015 452.182 402.583 452.955C402.167 453.713 401.855 454.534 401.647 455.418C401.455 456.286 401.359 457.193 401.359 458.14C401.359 459.545 401.543 460.808 401.911 461.929C402.279 463.049 402.895 463.989 403.759 464.746C404.639 465.488 405.712 465.859 406.976 465.859C408.352 465.859 409.432 465.37 410.216 464.391C411 463.413 411.392 461.968 411.392 460.058V459.774H407.864V458.969H412.304V459.774C412.304 462.126 411.824 463.87 410.864 465.007C409.904 466.143 408.608 466.712 406.976 466.712Z" fill="url(#paint11_linear_57_269)"/>
<path d="M478.374 466.427V458.211H469.349V466.427H468.485V449.853H469.349V457.406H478.374V449.853H479.238V466.427H478.374Z" fill="url(#paint12_linear_57_269)"/>
<path d="M540.106 450.635V466.427H539.242V450.635H534.634V449.853H544.739V450.635H540.106Z" fill="url(#paint13_linear_57_269)"/>
<path d="M614 466.427H613.136V453.358V452.316C613.088 452.426 613.016 452.6 612.92 452.837C612.824 453.058 612.752 453.231 612.704 453.358L607.063 466.712L601.423 453.358L600.991 452.316V453.358V466.427H600.127V449.853H600.895L606.559 463.302L607.063 464.51L607.567 463.302L613.232 449.853H614V466.427Z" fill="url(#paint14_linear_57_269)"/>
<path d="M670.401 466.427V449.853H679.162V450.635H671.265V457.454H676.594V458.235H671.265V465.646H679.69V466.427H670.401Z" fill="url(#paint15_linear_57_269)"/>
<path d="M746.56 466.427H745.72L737.104 452.671L736.36 451.463V452.671V466.427H735.496V449.853H736.336L744.952 463.61L745.696 464.817V463.61V449.853H746.56V466.427Z" fill="url(#paint16_linear_57_269)"/>
<path d="M807.422 450.635V466.427H806.558V450.635H801.949V449.853H812.054V450.635H807.422Z" fill="url(#paint17_linear_57_269)"/>
</g>
<g style="mix-blend-mode:overlay">
<path d="M115.81 528.583V512.009H124.57V512.79H116.674V519.609H122.002V520.39H116.674V527.801H125.098V528.583H115.81Z" fill="url(#paint18_linear_57_269)"/>
<path d="M198.329 528.583H197.489L188.873 514.826L188.129 513.619V514.826V528.583H187.265V512.009H188.105L196.721 525.765L197.465 526.973V525.765V512.009H198.329V528.583Z" fill="url(#paint19_linear_57_269)"/>
<path d="M261.087 528.583V512.009H261.951V527.801H270.28V528.583H261.087Z" fill="url(#paint20_linear_57_269)"/>
<path d="M331.37 528.583V512.009H332.234V528.583H331.37Z" fill="url(#paint21_linear_57_269)"/>
<path d="M400.948 528.867C399.812 528.867 398.812 528.63 397.948 528.156C397.084 527.667 396.396 527.012 395.884 526.191C395.388 525.37 395.012 524.463 394.756 523.468C394.516 522.474 394.396 521.416 394.396 520.296C394.396 519.128 394.524 518.046 394.78 517.052C395.052 516.042 395.444 515.134 395.956 514.329C396.468 513.524 397.148 512.893 397.996 512.435C398.86 511.961 399.844 511.725 400.948 511.725C402.868 511.725 404.397 512.482 405.533 513.998L404.765 514.495C403.837 513.216 402.564 512.577 400.948 512.577C399.956 512.577 399.084 512.806 398.332 513.264C397.58 513.721 396.988 514.337 396.556 515.11C396.14 515.868 395.828 516.689 395.62 517.573C395.428 518.441 395.332 519.349 395.332 520.296C395.332 521.701 395.516 522.963 395.884 524.084C396.252 525.205 396.868 526.144 397.732 526.902C398.612 527.643 399.684 528.014 400.948 528.014C402.324 528.014 403.404 527.525 404.189 526.546C404.973 525.568 405.365 524.123 405.365 522.214V521.929H401.836V521.124H406.277V521.929C406.277 524.281 405.797 526.026 404.837 527.162C403.877 528.299 402.58 528.867 400.948 528.867Z" fill="url(#paint22_linear_57_269)"/>
<path d="M478.707 528.583V520.367H469.682V528.583H468.818V512.009H469.682V519.562H478.707V512.009H479.571V528.583H478.707Z" fill="url(#paint23_linear_57_269)"/>
<path d="M546.8 512.79V528.583H545.936V512.79H541.327V512.009H551.432V512.79H546.8Z" fill="url(#paint24_linear_57_269)"/>
<path d="M627.054 528.583H626.19V515.513V514.471C626.142 514.582 626.07 514.755 625.974 514.992C625.878 515.213 625.806 515.387 625.758 515.513L620.118 528.867L614.477 515.513L614.045 514.471V515.513V528.583H613.181V512.009H613.949L619.614 525.457L620.118 526.665L620.622 525.457L626.286 512.009H627.054V528.583Z" fill="url(#paint25_linear_57_269)"/>
<path d="M689.816 528.583V512.009H698.577V512.79H690.68V519.609H696.008V520.39H690.68V527.801H699.105V528.583H689.816Z" fill="url(#paint26_linear_57_269)"/>
<path d="M772.336 528.583H771.496L762.879 514.826L762.135 513.619V514.826V528.583H761.271V512.009H762.111L770.728 525.765L771.472 526.973V525.765V512.009H772.336V528.583Z" fill="url(#paint27_linear_57_269)"/>
<path d="M839.557 512.79V528.583H838.693V512.79H834.085V512.009H844.19V512.79H839.557Z" fill="url(#paint28_linear_57_269)"/>
</g>
<g style="mix-blend-mode:overlay">
<path d="M74.0729 590.737V574.164H82.8336V574.945H74.937V581.764H80.2654V582.545H74.937V589.956H83.3617V590.737H74.0729Z" fill="url(#paint29_linear_57_269)"/>
<path d="M164.873 590.737H164.033L155.417 576.981L154.673 575.774V576.981V590.737H153.808V574.164H154.649L163.265 587.92L164.009 589.127V587.92V574.164H164.873V590.737Z" fill="url(#paint30_linear_57_269)"/>
<path d="M235.911 590.737V574.164H236.775V589.956H245.104V590.737H235.911Z" fill="url(#paint31_linear_57_269)"/>
<path d="M314.475 590.737V574.164H315.339V590.737H314.475Z" fill="url(#paint32_linear_57_269)"/>
<path d="M392.334 591.022C391.198 591.022 390.198 590.785 389.334 590.311C388.47 589.822 387.782 589.167 387.27 588.346C386.774 587.525 386.398 586.618 386.142 585.623C385.902 584.629 385.782 583.571 385.782 582.45C385.782 581.282 385.91 580.201 386.166 579.207C386.438 578.197 386.83 577.289 387.342 576.484C387.854 575.679 388.534 575.047 389.382 574.59C390.246 574.116 391.23 573.879 392.334 573.879C394.254 573.879 395.783 574.637 396.919 576.152L396.151 576.65C395.223 575.371 393.95 574.732 392.334 574.732C391.342 574.732 390.47 574.961 389.718 575.418C388.966 575.876 388.374 576.492 387.942 577.265C387.526 578.023 387.214 578.844 387.006 579.728C386.814 580.596 386.718 581.503 386.718 582.45C386.718 583.855 386.902 585.118 387.27 586.239C387.638 587.36 388.254 588.299 389.118 589.056C389.998 589.798 391.07 590.169 392.334 590.169C393.71 590.169 394.79 589.68 395.575 588.701C396.359 587.723 396.751 586.278 396.751 584.368V584.084H393.222V583.279H397.663V584.084C397.663 586.436 397.183 588.18 396.223 589.317C395.263 590.453 393.966 591.022 392.334 591.022Z" fill="url(#paint33_linear_57_269)"/>
<path d="M478.374 590.737V582.522H469.349V590.737H468.485V574.164H469.349V581.716H478.374V574.164H479.238V590.737H478.374Z" fill="url(#paint34_linear_57_269)"/>
<path d="M554.747 574.945V590.737H553.883V574.945H549.275V574.164H559.38V574.945H554.747Z" fill="url(#paint35_linear_57_269)"/>
<path d="M643.282 590.737H642.418V577.668V576.626C642.37 576.736 642.298 576.91 642.202 577.147C642.106 577.368 642.034 577.541 641.986 577.668L636.346 591.022L630.705 577.668L630.273 576.626V577.668V590.737H629.409V574.164H630.177L635.842 587.612L636.346 588.82L636.85 587.612L642.514 574.164H643.282V590.737Z" fill="url(#paint36_linear_57_269)"/>
<path d="M714.325 590.737V574.164H723.086V574.945H715.189V581.764H720.517V582.545H715.189V589.956H723.614V590.737H714.325Z" fill="url(#paint37_linear_57_269)"/>
<path d="M805.125 590.737H804.285L795.669 576.981L794.924 575.774V576.981V590.737H794.06V574.164H794.9L803.517 587.92L804.261 589.127V587.92V574.164H805.125V590.737Z" fill="url(#paint38_linear_57_269)"/>
<path d="M880.628 574.945V590.737H879.764V574.945H875.155V574.164H885.26V574.945H880.628Z" fill="url(#paint39_linear_57_269)"/>
</g>
<g style="mix-blend-mode:overlay">
<path d="M39.8699 652.895V636.321H48.6306V637.102H40.7339V643.921H46.0624V644.702H40.7339V652.113H49.1587V652.895H39.8699Z" fill="url(#paint40_linear_57_269)"/>
<path d="M137.511 652.895H136.671L128.054 639.138L127.31 637.931V639.138V652.895H126.446V636.321H127.286L135.903 650.077L136.647 651.285V650.077V636.321H137.511V652.895Z" fill="url(#paint41_linear_57_269)"/>
<path d="M215.39 652.895V636.321H216.254V652.113H224.582V652.895H215.39Z" fill="url(#paint42_linear_57_269)"/>
<path d="M300.794 652.895V636.321H301.658V652.895H300.794Z" fill="url(#paint43_linear_57_269)"/>
<path d="M385.494 653.179C384.357 653.179 383.357 652.942 382.493 652.468C381.629 651.979 380.941 651.324 380.429 650.503C379.933 649.682 379.557 648.775 379.301 647.78C379.061 646.786 378.941 645.728 378.941 644.608C378.941 643.44 379.069 642.358 379.325 641.364C379.597 640.354 379.989 639.446 380.501 638.641C381.013 637.836 381.693 637.205 382.541 636.747C383.405 636.273 384.389 636.037 385.494 636.037C387.414 636.037 388.942 636.794 390.078 638.31L389.31 638.807C388.382 637.528 387.11 636.889 385.494 636.889C384.501 636.889 383.629 637.118 382.877 637.576C382.125 638.033 381.533 638.649 381.101 639.422C380.685 640.18 380.373 641.001 380.165 641.885C379.973 642.753 379.877 643.661 379.877 644.608C379.877 646.013 380.061 647.275 380.429 648.396C380.797 649.517 381.413 650.456 382.277 651.214C383.157 651.955 384.229 652.326 385.494 652.326C386.87 652.326 387.95 651.837 388.734 650.858C389.518 649.88 389.91 648.435 389.91 646.526V646.241H386.382V645.436H390.822V646.241C390.822 648.593 390.342 650.338 389.382 651.474C388.422 652.611 387.126 653.179 385.494 653.179Z" fill="url(#paint44_linear_57_269)"/>
<path d="M478.373 652.895V644.679H469.349V652.895H468.485V636.321H469.349V643.874H478.373V636.321H479.238V652.895H478.373Z" fill="url(#paint45_linear_57_269)"/>
<path d="M561.588 637.102V652.895H560.724V637.102H556.115V636.321H566.22V637.102H561.588Z" fill="url(#paint46_linear_57_269)"/>
<path d="M656.963 652.895H656.099V639.825V638.783C656.051 638.894 655.979 639.067 655.883 639.304C655.787 639.525 655.715 639.699 655.667 639.825L650.027 653.179L644.386 639.825L643.954 638.783V639.825V652.895H643.09V636.321H643.858L649.523 649.769L650.027 650.977L650.531 649.769L656.195 636.321H656.963V652.895Z" fill="url(#paint47_linear_57_269)"/>
<path d="M734.846 652.895V636.321H743.607V637.102H735.711V643.921H741.039V644.702H735.711V652.113H744.135V652.895H734.846Z" fill="url(#paint48_linear_57_269)"/>
<path d="M832.488 652.895H831.648L823.031 639.138L822.287 637.931V639.138V652.895H821.423V636.321H822.263L830.879 650.077L831.624 651.285V650.077V636.321H832.488V652.895Z" fill="url(#paint49_linear_57_269)"/>
<path d="M914.831 637.102V652.895H913.966V637.102H909.358V636.321H919.463V637.102H914.831Z" fill="url(#paint50_linear_57_269)"/>
</g>
<g style="mix-blend-mode:overlay">
<path d="M0 715.05V698.476H8.76075V699.257H0.864074V706.076H6.19253V706.858H0.864074V714.269H9.28879V715.05H0Z" fill="url(#paint51_linear_57_269)"/>
<path d="M105.682 715.05H104.842L96.225 701.294L95.4809 700.086V701.294V715.05H94.6168V698.476H95.4569L104.074 712.232L104.818 713.44V712.232V698.476H105.682V715.05Z" fill="url(#paint52_linear_57_269)"/>
<path d="M191.601 715.05V698.476H192.465V714.269H200.794V715.05H191.601Z" fill="url(#paint53_linear_57_269)"/>
<path d="M285.046 715.05V698.476H285.91V715.05H285.046Z" fill="url(#paint54_linear_57_269)"/>
<path d="M377.786 715.334C376.65 715.334 375.65 715.097 374.786 714.624C373.922 714.134 373.234 713.479 372.722 712.659C372.226 711.838 371.85 710.93 371.594 709.936C371.354 708.941 371.234 707.884 371.234 706.763C371.234 705.595 371.362 704.514 371.618 703.519C371.89 702.509 372.282 701.601 372.794 700.796C373.306 699.991 373.986 699.36 374.834 698.902C375.698 698.429 376.682 698.192 377.786 698.192C379.707 698.192 381.235 698.95 382.371 700.465L381.603 700.962C380.675 699.684 379.403 699.044 377.786 699.044C376.794 699.044 375.922 699.273 375.17 699.731C374.418 700.189 373.826 700.804 373.394 701.578C372.978 702.335 372.666 703.156 372.458 704.04C372.266 704.908 372.17 705.816 372.17 706.763C372.17 708.168 372.354 709.431 372.722 710.551C373.09 711.672 373.706 712.611 374.57 713.369C375.45 714.111 376.522 714.482 377.786 714.482C379.163 714.482 380.243 713.992 381.027 713.014C381.811 712.035 382.203 710.591 382.203 708.681V708.397H378.675V707.592H383.115V708.397C383.115 710.749 382.635 712.493 381.675 713.629C380.715 714.766 379.419 715.334 377.786 715.334Z" fill="url(#paint55_linear_57_269)"/>
<path d="M478.707 715.05V706.834H469.682V715.05H468.818V698.476H469.682V706.029H478.707V698.476H479.571V715.05H478.707Z" fill="url(#paint56_linear_57_269)"/>
<path d="M569.962 699.257V715.05H569.098V699.257H564.49V698.476H574.594V699.257H569.962Z" fill="url(#paint57_linear_57_269)"/>
<path d="M673.378 715.05H672.514V701.98V700.938C672.466 701.049 672.394 701.223 672.298 701.459C672.202 701.68 672.13 701.854 672.082 701.98L666.442 715.334L660.801 701.98L660.369 700.938V701.98V715.05H659.505V698.476H660.273L665.938 711.925L666.442 713.132L666.946 711.925L672.61 698.476H673.378V715.05Z" fill="url(#paint58_linear_57_269)"/>
<path d="M759.302 715.05V698.476H768.063V699.257H760.166V706.076H765.495V706.858H760.166V714.269H768.591V715.05H759.302Z" fill="url(#paint59_linear_57_269)"/>
<path d="M864.984 715.05H864.144L855.527 701.294L854.783 700.086V701.294V715.05H853.919V698.476H854.759L863.376 712.232L864.12 713.44V712.232V698.476H864.984V715.05Z" fill="url(#paint60_linear_57_269)"/>
<path d="M955.368 699.257V715.05H954.503V699.257H949.895V698.476H960V699.257H955.368Z" fill="url(#paint61_linear_57_269)"/>
</g>
<g style="mix-blend-mode:overlay">
<path d="M147.279 332.674V316.1H156.04V316.881H148.143V323.7H153.472V324.482H148.143V331.893H156.568V332.674H147.279Z" fill="url(#paint62_linear_57_269)"/>
<path d="M223.439 332.674H222.598L213.982 318.918L213.238 317.71V318.918V332.674H212.374V316.1H213.214L221.83 329.856L222.574 331.064V329.856V316.1H223.439V332.674Z" fill="url(#paint63_linear_57_269)"/>
<path d="M279.835 332.674V316.1H280.699V331.893H289.028V332.674H279.835Z" fill="url(#paint64_linear_57_269)"/>
<path d="M343.758 332.674V316.1H344.622V332.674H343.758Z" fill="url(#paint65_linear_57_269)"/>
<path d="M406.976 332.958C405.84 332.958 404.84 332.721 403.975 332.248C403.111 331.758 402.423 331.103 401.911 330.283C401.415 329.462 401.039 328.554 400.783 327.56C400.543 326.565 400.423 325.508 400.423 324.387C400.423 323.219 400.551 322.138 400.807 321.143C401.079 320.133 401.471 319.225 401.983 318.42C402.495 317.615 403.175 316.984 404.023 316.526C404.888 316.053 405.872 315.816 406.976 315.816C408.896 315.816 410.424 316.574 411.56 318.089L410.792 318.586C409.864 317.308 408.592 316.668 406.976 316.668C405.984 316.668 405.112 316.897 404.359 317.355C403.607 317.813 403.015 318.428 402.583 319.202C402.167 319.959 401.855 320.78 401.647 321.664C401.455 322.532 401.359 323.44 401.359 324.387C401.359 325.792 401.543 327.055 401.911 328.175C402.279 329.296 402.895 330.235 403.759 330.993C404.639 331.735 405.712 332.106 406.976 332.106C408.352 332.106 409.432 331.616 410.216 330.638C411 329.659 411.392 328.215 411.392 326.305V326.021H407.864V325.216H412.304V326.021C412.304 328.373 411.824 330.117 410.864 331.253C409.904 332.39 408.608 332.958 406.976 332.958Z" fill="url(#paint66_linear_57_269)"/>
<path d="M478.374 332.674V324.458H469.349V332.674H468.485V316.1H469.349V323.653H478.374V316.1H479.238V332.674H478.374Z" fill="url(#paint67_linear_57_269)"/>
<path d="M540.106 316.881V332.674H539.242V316.881H534.634V316.1H544.739V316.881H540.106Z" fill="url(#paint68_linear_57_269)"/>
<path d="M614 332.674H613.136V319.604V318.562C613.088 318.673 613.016 318.847 612.92 319.083C612.824 319.304 612.752 319.478 612.704 319.604L607.063 332.958L601.423 319.604L600.991 318.562V319.604V332.674H600.127V316.1H600.895L606.559 329.549L607.063 330.756L607.567 329.549L613.232 316.1H614V332.674Z" fill="url(#paint69_linear_57_269)"/>
<path d="M670.401 332.674V316.1H679.162V316.881H671.265V323.7H676.594V324.482H671.265V331.893H679.69V332.674H670.401Z" fill="url(#paint70_linear_57_269)"/>
<path d="M746.56 332.674H745.72L737.104 318.918L736.36 317.71V318.918V332.674H735.496V316.1H736.336L744.952 329.856L745.696 331.064V329.856V316.1H746.56V332.674Z" fill="url(#paint71_linear_57_269)"/>
<path d="M807.422 316.881V332.674H806.558V316.881H801.949V316.1H812.054V316.881H807.422Z" fill="url(#paint72_linear_57_269)"/>
</g>
<g style="mix-blend-mode:overlay">
<path d="M194.083 268.411V251.837H202.844V252.619H194.947V259.438H200.276V260.219H194.947V267.63H203.372V268.411H194.083Z" fill="url(#paint73_linear_57_269)"/>
<path d="M260.882 268.411H260.042L251.425 254.655L250.681 253.447V254.655V268.411H249.817V251.837H250.657L259.274 265.594L260.018 266.801V265.594V251.837H260.882V268.411Z" fill="url(#paint74_linear_57_269)"/>
<path d="M307.918 268.411V251.837H308.782V267.63H317.11V268.411H307.918Z" fill="url(#paint75_linear_57_269)"/>
<path d="M362.479 268.411V251.837H363.343V268.411H362.479Z" fill="url(#paint76_linear_57_269)"/>
<path d="M416.336 268.695C415.2 268.695 414.2 268.459 413.336 267.985C412.472 267.496 411.784 266.841 411.272 266.02C410.776 265.199 410.4 264.291 410.144 263.297C409.904 262.303 409.784 261.245 409.784 260.124C409.784 258.956 409.912 257.875 410.168 256.881C410.44 255.87 410.832 254.963 411.344 254.158C411.856 253.353 412.536 252.721 413.384 252.264C414.248 251.79 415.232 251.553 416.336 251.553C418.257 251.553 419.785 252.311 420.921 253.826L420.153 254.323C419.225 253.045 417.953 252.406 416.336 252.406C415.344 252.406 414.472 252.634 413.72 253.092C412.968 253.55 412.376 254.166 411.944 254.939C411.528 255.697 411.216 256.518 411.008 257.401C410.816 258.27 410.72 259.177 410.72 260.124C410.72 261.529 410.904 262.792 411.272 263.913C411.64 265.033 412.256 265.973 413.12 266.73C414 267.472 415.072 267.843 416.336 267.843C417.713 267.843 418.793 267.354 419.577 266.375C420.361 265.396 420.753 263.952 420.753 262.042V261.758H417.225V260.953H421.665V261.758C421.665 264.11 421.185 265.854 420.225 266.991C419.265 268.127 417.969 268.695 416.336 268.695Z" fill="url(#paint77_linear_57_269)"/>
<path d="M478.374 268.411V260.195H469.349V268.411H468.485V251.837H469.349V259.39H478.374V251.837H479.238V268.411H478.374Z" fill="url(#paint78_linear_57_269)"/>
<path d="M530.745 252.619V268.411H529.881V252.619H525.273V251.837H535.378V252.619H530.745Z" fill="url(#paint79_linear_57_269)"/>
<path d="M595.278 268.411H594.414V255.342V254.3C594.366 254.41 594.294 254.584 594.198 254.821C594.102 255.042 594.03 255.215 593.982 255.342L588.342 268.695L582.701 255.342L582.269 254.3V255.342V268.411H581.405V251.837H582.173L587.838 265.286L588.342 266.493L588.846 265.286L594.51 251.837H595.278V268.411Z" fill="url(#paint80_linear_57_269)"/>
<path d="M642.319 268.411V251.837H651.079V252.619H643.183V259.438H648.511V260.219H643.183V267.63H651.608V268.411H642.319Z" fill="url(#paint81_linear_57_269)"/>
<path d="M709.117 268.411H708.277L699.66 254.655L698.916 253.447V254.655V268.411H698.052V251.837H698.892L707.509 265.594L708.253 266.801V265.594V251.837H709.117V268.411Z" fill="url(#paint82_linear_57_269)"/>
<path d="M760.618 252.619V268.411H759.753V252.619H755.145V251.837H765.25V252.619H760.618Z" fill="url(#paint83_linear_57_269)"/>
</g>
<g style="mix-blend-mode:overlay">
<path d="M231.886 204.151V187.577H240.647V188.358H232.751V195.177H238.079V195.958H232.751V203.369H241.175V204.151H231.886Z" fill="url(#paint84_linear_57_269)"/>
<path d="M291.124 204.151H290.284L281.667 190.394L280.923 189.187V190.394V204.151H280.059V187.577H280.899L289.516 201.333L290.26 202.54V201.333V187.577H291.124V204.151Z" fill="url(#paint85_linear_57_269)"/>
<path d="M330.6 204.151V187.577H331.464V203.369H339.792V204.151H330.6Z" fill="url(#paint86_linear_57_269)"/>
<path d="M377.601 204.151V187.577H378.465V204.151H377.601Z" fill="url(#paint87_linear_57_269)"/>
<path d="M423.897 204.435C422.761 204.435 421.761 204.198 420.897 203.724C420.033 203.235 419.345 202.58 418.833 201.759C418.337 200.938 417.961 200.031 417.705 199.036C417.465 198.042 417.345 196.984 417.345 195.864C417.345 194.695 417.473 193.614 417.729 192.62C418.001 191.61 418.393 190.702 418.905 189.897C419.417 189.092 420.097 188.461 420.945 188.003C421.809 187.529 422.793 187.292 423.897 187.292C425.817 187.292 427.345 188.05 428.482 189.565L427.713 190.063C426.785 188.784 425.513 188.145 423.897 188.145C422.905 188.145 422.033 188.374 421.281 188.831C420.529 189.289 419.937 189.905 419.505 190.678C419.089 191.436 418.777 192.257 418.569 193.141C418.377 194.009 418.281 194.916 418.281 195.864C418.281 197.268 418.465 198.531 418.833 199.652C419.201 200.773 419.817 201.712 420.681 202.469C421.561 203.211 422.633 203.582 423.897 203.582C425.273 203.582 426.353 203.093 427.137 202.114C427.921 201.136 428.313 199.691 428.313 197.781V197.497H424.785V196.692H429.226V197.497C429.226 199.849 428.746 201.593 427.785 202.73C426.825 203.866 425.529 204.435 423.897 204.435Z" fill="url(#paint88_linear_57_269)"/>
<path d="M478.374 204.151V195.935H469.349V204.151H468.485V187.577H469.349V195.13H478.374V187.577H479.238V204.151H478.374Z" fill="url(#paint89_linear_57_269)"/>
<path d="M523.185 188.358V204.151H522.321V188.358H517.712V187.577H527.817V188.358H523.185Z" fill="url(#paint90_linear_57_269)"/>
<path d="M580.157 204.151H579.293V191.081V190.039C579.245 190.15 579.173 190.323 579.077 190.56C578.981 190.781 578.909 190.955 578.861 191.081L573.22 204.435L567.58 191.081L567.148 190.039V191.081V204.151H566.284V187.577H567.052L572.716 201.025L573.22 202.233L573.724 201.025L579.389 187.577H580.157V204.151Z" fill="url(#paint91_linear_57_269)"/>
<path d="M619.637 204.151V187.577H628.398V188.358H620.501V195.177H625.829V195.958H620.501V203.369H628.926V204.151H619.637Z" fill="url(#paint92_linear_57_269)"/>
<path d="M678.875 204.151H678.035L669.418 190.394L668.674 189.187V190.394V204.151H667.81V187.577H668.65L677.267 201.333L678.011 202.54V201.333V187.577H678.875V204.151Z" fill="url(#paint93_linear_57_269)"/>
<path d="M722.814 188.358V204.151H721.95V188.358H717.342V187.577H727.447V188.358H722.814Z" fill="url(#paint94_linear_57_269)"/>
</g>
<g style="mix-blend-mode:overlay">
<path d="M259.222 139.889V123.315H267.983V124.097H260.086V130.916H265.414V131.697H260.086V139.108H268.511V139.889H259.222Z" fill="url(#paint95_linear_57_269)"/>
<path d="M313.059 139.889H312.219L303.602 126.133L302.858 124.925V126.133V139.889H301.994V123.315H302.834L311.451 137.072L312.195 138.279V137.072V123.315H313.059V139.889Z" fill="url(#paint96_linear_57_269)"/>
<path d="M347.134 139.889V123.315H347.998V139.108H356.327V139.889H347.134Z" fill="url(#paint97_linear_57_269)"/>
<path d="M388.735 139.889V123.315H389.599V139.889H388.735Z" fill="url(#paint98_linear_57_269)"/>
<path d="M429.631 140.173C428.495 140.173 427.495 139.937 426.63 139.463C425.766 138.974 425.078 138.319 424.566 137.498C424.07 136.677 423.694 135.769 423.438 134.775C423.198 133.781 423.078 132.723 423.078 131.602C423.078 130.434 423.206 129.353 423.462 128.359C423.734 127.348 424.126 126.441 424.638 125.636C425.15 124.831 425.83 124.199 426.678 123.742C427.543 123.268 428.527 123.031 429.631 123.031C431.551 123.031 433.079 123.789 434.215 125.304L433.447 125.801C432.519 124.523 431.247 123.884 429.631 123.884C428.639 123.884 427.767 124.113 427.014 124.57C426.262 125.028 425.67 125.644 425.238 126.417C424.822 127.175 424.51 127.996 424.302 128.879C424.11 129.748 424.014 130.655 424.014 131.602C424.014 133.007 424.198 134.27 424.566 135.391C424.934 136.511 425.55 137.451 426.414 138.208C427.295 138.95 428.367 139.321 429.631 139.321C431.007 139.321 432.087 138.832 432.871 137.853C433.655 136.874 434.047 135.43 434.047 133.52V133.236H430.519V132.431H434.959V133.236C434.959 135.588 434.479 137.332 433.519 138.469C432.559 139.605 431.263 140.173 429.631 140.173Z" fill="url(#paint99_linear_57_269)"/>
<path d="M478.707 139.889V131.673H469.682V139.889H468.818V123.315H469.682V130.868H478.707V123.315H479.571V139.889H478.707Z" fill="url(#paint100_linear_57_269)"/>
<path d="M518.117 124.097V139.889H517.253V124.097H512.645V123.315H522.75V124.097H518.117Z" fill="url(#paint101_linear_57_269)"/>
<path d="M569.689 139.889H568.825V126.82V125.778C568.777 125.888 568.705 126.062 568.609 126.299C568.513 126.52 568.441 126.693 568.393 126.82L562.753 140.173L557.112 126.82L556.68 125.778V126.82V139.889H555.816V123.315H556.584L562.249 136.764L562.753 137.971L563.257 136.764L568.921 123.315H569.689V139.889Z" fill="url(#paint102_linear_57_269)"/>
<path d="M603.769 139.889V123.315H612.529V124.097H604.633V130.916H609.961V131.697H604.633V139.108H613.057V139.889H603.769Z" fill="url(#paint103_linear_57_269)"/>
<path d="M657.606 139.889H656.766L648.149 126.133L647.405 124.925V126.133V139.889H646.541V123.315H647.381L655.998 137.072L656.742 138.279V137.072V123.315H657.606V139.889Z" fill="url(#paint104_linear_57_269)"/>
<path d="M696.145 124.097V139.889H695.281V124.097H690.673V123.315H700.778V124.097H696.145Z" fill="url(#paint105_linear_57_269)"/>
</g>
<g style="mix-blend-mode:overlay">
<path d="M312.027 75.6271V59.0532H320.787V59.8345H312.891V66.6535H318.219V67.4348H312.891V74.8457H321.315V75.6271H312.027Z" fill="url(#paint106_linear_57_269)"/>
<path d="M355.303 75.6271H354.463L345.846 61.8707L345.102 60.6632V61.8707V75.6271H344.238V59.0532H345.078L353.695 72.8095L354.439 74.017V72.8095V59.0532H355.303V75.6271Z" fill="url(#paint107_linear_57_269)"/>
<path d="M378.817 75.6271V59.0532H379.681V74.8457H388.01V75.6271H378.817Z" fill="url(#paint108_linear_57_269)"/>
<path d="M409.857 75.6271V59.0532H410.721V75.6271H409.857Z" fill="url(#paint109_linear_57_269)"/>
<path d="M440.192 75.9112C439.056 75.9112 438.056 75.6744 437.192 75.2009C436.327 74.7116 435.639 74.0565 435.127 73.2357C434.631 72.4149 434.255 71.5073 433.999 70.5128C433.759 69.5184 433.639 68.4608 433.639 67.3401C433.639 66.1721 433.767 65.0908 434.023 64.0964C434.295 63.0862 434.687 62.1785 435.199 61.3735C435.711 60.5685 436.391 59.9371 437.24 59.4794C438.104 59.0058 439.088 58.769 440.192 58.769C442.112 58.769 443.64 59.5267 444.776 61.042L444.008 61.5393C443.08 60.2607 441.808 59.6214 440.192 59.6214C439.2 59.6214 438.328 59.8503 437.576 60.308C436.823 60.7658 436.231 61.3814 435.799 62.1549C435.383 62.9125 435.071 63.7333 434.863 64.6173C434.671 65.4854 434.575 66.393 434.575 67.3401C434.575 68.745 434.759 70.0077 435.127 71.1284C435.495 72.2492 436.111 73.1884 436.976 73.946C437.856 74.6879 438.928 75.0588 440.192 75.0588C441.568 75.0588 442.648 74.5695 443.432 73.5909C444.216 72.6122 444.608 71.1679 444.608 69.258V68.9738H441.08V68.1688H445.52V68.9738C445.52 71.3258 445.04 73.07 444.08 74.2065C443.12 75.343 441.824 75.9112 440.192 75.9112Z" fill="url(#paint110_linear_57_269)"/>
<path d="M478.707 75.6271V67.4112H469.682V75.6271H468.818V59.0532H469.682V66.6061H478.707V59.0532H479.571V75.6271H478.707Z" fill="url(#paint111_linear_57_269)"/>
<path d="M507.557 59.8345V75.6271H506.693V59.8345H502.084V59.0532H512.189V59.8345H507.557Z" fill="url(#paint112_linear_57_269)"/>
<path d="M548.568 75.6271H547.704V62.5574V61.5156C547.656 61.6261 547.584 61.7997 547.488 62.0365C547.392 62.2575 547.32 62.4311 547.272 62.5574L541.631 75.9112L535.991 62.5574L535.559 61.5156V62.5574V75.6271H534.694V59.0532H535.463L541.127 72.5017L541.631 73.7092L542.135 72.5017L547.8 59.0532H548.568V75.6271Z" fill="url(#paint113_linear_57_269)"/>
<path d="M572.086 75.6271V59.0532H580.847V59.8345H572.95V66.6535H578.279V67.4348H572.95V74.8457H581.375V75.6271H572.086Z" fill="url(#paint114_linear_57_269)"/>
<path d="M615.363 75.6271H614.522L605.906 61.8707L605.162 60.6632V61.8707V75.6271H604.298V59.0532H605.138L613.754 72.8095L614.498 74.017V72.8095V59.0532H615.363V75.6271Z" fill="url(#paint115_linear_57_269)"/>
<path d="M643.341 59.8345V75.6271H642.477V59.8345H637.868V59.0532H647.973V59.8345H643.341Z" fill="url(#paint116_linear_57_269)"/>
</g>
<path d="M529.52 338.953L533.6 338.815L533.463 334.735L529.383 334.872L529.52 338.953ZM691.075 166.115L690.967 165.627L690.816 165.661L690.71 165.774L691.075 166.115ZM531.857 337.185L691.44 166.457L690.71 165.774L531.126 336.502L531.857 337.185ZM691.183 166.604L908.11 118.555L907.893 117.578L690.967 165.627L691.183 166.604Z" fill="white"/>
<path d="M790.903 392.111C790.903 561.57 651.642 698.954 479.841 698.954C308.04 698.954 168.779 561.57 168.779 392.111C168.779 222.653 308.04 85.2686 479.841 85.2686C651.642 85.2686 790.903 222.653 790.903 392.111Z" stroke="white" stroke-opacity="0.09"/>
<path d="M751.957 392.111C751.957 540.352 630.133 660.536 479.841 660.536C329.548 660.536 207.724 540.352 207.724 392.111C207.724 243.871 329.548 123.687 479.841 123.687C630.133 123.687 751.957 243.871 751.957 392.111Z" stroke="white" stroke-opacity="0.09"/>
<path d="M713.012 392.111C713.012 519.134 608.624 622.118 479.841 622.118C351.057 622.118 246.669 519.134 246.669 392.111C246.669 265.088 351.057 162.104 479.841 162.104C608.624 162.104 713.012 265.088 713.012 392.111Z" stroke="white" stroke-opacity="0.09"/>
<path d="M674.067 392.111C674.067 497.917 587.115 583.7 479.841 583.7C372.566 583.7 285.615 497.917 285.615 392.111C285.615 286.306 372.566 200.522 479.841 200.522C587.115 200.522 674.067 286.306 674.067 392.111Z" stroke="white" stroke-opacity="0.09"/>
<path d="M635.122 392.111C635.122 476.699 565.606 545.283 479.841 545.283C394.075 545.283 324.56 476.699 324.56 392.111C324.56 307.524 394.075 238.94 479.841 238.94C565.606 238.94 635.122 307.524 635.122 392.111Z" stroke="white" stroke-opacity="0.09"/>
<path d="M596.176 392.111C596.176 455.482 544.098 506.865 479.841 506.865C415.584 506.865 363.505 455.482 363.505 392.111C363.505 328.741 415.584 277.358 479.841 277.358C544.098 277.358 596.176 328.741 596.176 392.111Z" stroke="white" stroke-opacity="0.09"/>
<path d="M557.231 392.112C557.231 434.264 522.589 468.447 479.841 468.447C437.093 468.447 402.45 434.264 402.45 392.112C402.45 349.959 437.093 315.776 479.841 315.776C522.589 315.776 557.231 349.959 557.231 392.112Z" stroke="white" stroke-opacity="0.09"/>
<path d="M518.286 392.111C518.286 413.046 501.08 430.029 479.841 430.029C458.602 430.029 441.395 413.046 441.395 392.111C441.395 371.176 458.602 354.193 479.841 354.193C501.08 354.193 518.286 371.176 518.286 392.111Z" stroke="white" stroke-opacity="0.09"/>
<mask id="path-38-inside-1_57_269" fill="white">
<path d="M479.841 161.604C516.842 161.604 553.315 170.272 586.257 186.895C619.198 203.517 647.668 227.619 669.321 257.217C690.975 286.814 705.193 321.062 710.807 357.14C716.421 393.217 713.269 430.095 701.611 464.736L479.841 392.111L479.841 161.604Z"/>
</mask>
<path d="M479.841 161.604C516.842 161.604 553.315 170.272 586.257 186.895C619.198 203.517 647.668 227.619 669.321 257.217C690.975 286.814 705.193 321.062 710.807 357.14C716.421 393.217 713.269 430.095 701.611 464.736L479.841 392.111L479.841 161.604Z" fill="#5388D8" fill-opacity="0.3" stroke="#5388D8" stroke-width="2" mask="url(#path-38-inside-1_57_269)"/>
<mask id="path-39-inside-2_57_269" fill="white">
<path d="M640.291 446.547C630.731 474.291 613.902 499.048 591.512 518.307C569.122 537.565 541.967 550.64 512.802 556.205L480.814 393.072L640.291 446.547Z"/>
</mask>
<path d="M640.291 446.547C630.731 474.291 613.902 499.048 591.512 518.307C569.122 537.565 541.967 550.64 512.802 556.205L480.814 393.072L640.291 446.547Z" fill="#F4BE37" fill-opacity="0.3" stroke="#F4BE37" stroke-width="2" mask="url(#path-39-inside-2_57_269)"/>
<mask id="path-40-inside-3_57_269" fill="white">
<path d="M524.843 647.604C481.943 654.957 437.863 651.683 396.562 638.076C355.262 624.468 318.035 600.954 288.225 569.645C258.415 538.336 236.956 500.213 225.775 458.7C214.594 417.186 214.041 373.584 224.167 331.808L479.841 392.111L524.843 647.604Z"/>
</mask>
<path d="M524.843 647.604C481.943 654.957 437.863 651.683 396.562 638.076C355.262 624.468 318.035 600.954 288.225 569.645C258.415 538.336 236.956 500.213 225.775 458.7C214.594 417.186 214.041 373.584 224.167 331.808L479.841 392.111L524.843 647.604Z" fill="#FF9F40" fill-opacity="0.3" stroke="#FF9F40" stroke-width="2" mask="url(#path-40-inside-3_57_269)"/>
<path d="M224.396 660.955L223.989 660.664L223.896 660.794V660.955H224.396ZM224.396 803.341L227.282 800.455L224.396 797.568L221.509 800.455L224.396 803.341ZM363.883 465.164L223.989 660.664L224.802 661.246L364.697 465.746L363.883 465.164ZM223.896 660.955V800.455H224.896V660.955H223.896Z" fill="white"/>
<path d="M686.655 641.455H687.155V641.287L687.054 641.153L686.655 641.455ZM686.655 956.341L689.542 953.455L686.655 950.568L683.769 953.455L686.655 956.341ZM538.253 446.256L686.257 641.756L687.054 641.153L539.05 445.653L538.253 446.256ZM686.155 641.455V953.455H687.155V641.455H686.155Z" fill="white"/>
<path d="M263.743 226.075L264.072 225.699L263.958 225.599L263.807 225.579L263.743 226.075ZM434.022 374.9L433.748 370.826L429.674 371.1L429.948 375.174L434.022 374.9ZM60.7599 200.496L263.679 226.571L263.807 225.579L60.8874 199.504L60.7599 200.496ZM263.414 226.452L431.519 373.376L432.177 372.624L264.072 225.699L263.414 226.452Z" fill="white"/>
<defs>
<filter id="filter0_f_57_269" x="215.198" y="122.877" width="638.765" height="635.913" filterUnits="userSpaceOnUse" color-interpolation-filters="sRGB">
<feFlood flood-opacity="0" result="BackgroundImageFix"/>
<feBlend mode="normal" in="SourceGraphic" in2="BackgroundImageFix" result="shape"/>
<feGaussianBlur stdDeviation="100" result="effect1_foregroundBlur_57_269"/>
</filter>
<filter id="filter1_f_57_269" x="237.856" y="0.775879" width="677.159" height="675.853" filterUnits="userSpaceOnUse" color-interpolation-filters="sRGB">
<feFlood flood-opacity="0" result="BackgroundImageFix"/>
<feBlend mode="normal" in="SourceGraphic" in2="BackgroundImageFix" result="shape"/>
<feGaussianBlur stdDeviation="140" result="effect1_foregroundBlur_57_269"/>
</filter>
<filter id="filter2_f_57_269" x="122.675" y="201.643" width="535.519" height="534.055" filterUnits="userSpaceOnUse" color-interpolation-filters="sRGB">
<feFlood flood-opacity="0" result="BackgroundImageFix"/>
<feBlend mode="normal" in="SourceGraphic" in2="BackgroundImageFix" result="shape"/>
<feGaussianBlur stdDeviation="100" result="effect1_foregroundBlur_57_269"/>
</filter>
<filter id="filter3_f_57_269" x="121.081" y="36.1221" width="691.224" height="683.856" filterUnits="userSpaceOnUse" color-interpolation-filters="sRGB">
<feFlood flood-opacity="0" result="BackgroundImageFix"/>
<feBlend mode="normal" in="SourceGraphic" in2="BackgroundImageFix" result="shape"/>
<feGaussianBlur stdDeviation="100" result="effect1_foregroundBlur_57_269"/>
</filter>
<filter id="filter4_b_57_269" x="218.746" y="139.853" width="520.157" height="514.792" filterUnits="userSpaceOnUse" color-interpolation-filters="sRGB">
<feFlood flood-opacity="0" result="BackgroundImageFix"/>
<feGaussianBlur in="BackgroundImage" stdDeviation="31"/>
<feComposite in2="SourceAlpha" operator="in" result="effect1_backgroundBlur_57_269"/>
<feBlend mode="normal" in="SourceGraphic" in2="effect1_backgroundBlur_57_269" result="shape"/>
</filter>
<filter id="filter5_b_57_269" x="239.507" y="160.333" width="478.635" height="473.833" filterUnits="userSpaceOnUse" color-interpolation-filters="sRGB">
<feFlood flood-opacity="0" result="BackgroundImageFix"/>
<feGaussianBlur in="BackgroundImage" stdDeviation="31"/>
<feComposite in2="SourceAlpha" operator="in" result="effect1_backgroundBlur_57_269"/>
<feBlend mode="normal" in="SourceGraphic" in2="effect1_backgroundBlur_57_269" result="shape"/>
</filter>
<filter id="filter6_b_57_269" x="261.019" y="181.553" width="435.612" height="431.392" filterUnits="userSpaceOnUse" color-interpolation-filters="sRGB">
<feFlood flood-opacity="0" result="BackgroundImageFix"/>
<feGaussianBlur in="BackgroundImage" stdDeviation="31"/>
<feComposite in2="SourceAlpha" operator="in" result="effect1_backgroundBlur_57_269"/>
<feBlend mode="normal" in="SourceGraphic" in2="effect1_backgroundBlur_57_269" result="shape"/>
</filter>
<filter id="filter7_b_57_269" x="280.303" y="200.577" width="397.043" height="393.346" filterUnits="userSpaceOnUse" color-interpolation-filters="sRGB">
<feFlood flood-opacity="0" result="BackgroundImageFix"/>
<feGaussianBlur in="BackgroundImage" stdDeviation="31"/>
<feComposite in2="SourceAlpha" operator="in" result="effect1_backgroundBlur_57_269"/>
<feBlend mode="normal" in="SourceGraphic" in2="effect1_backgroundBlur_57_269" result="shape"/>
</filter>
<filter id="filter8_b_57_269" x="308.889" y="228.774" width="339.872" height="336.949" filterUnits="userSpaceOnUse" color-interpolation-filters="sRGB">
<feFlood flood-opacity="0" result="BackgroundImageFix"/>
<feGaussianBlur in="BackgroundImage" stdDeviation="31"/>
<feComposite in2="SourceAlpha" operator="in" result="effect1_backgroundBlur_57_269"/>
<feBlend mode="normal" in="SourceGraphic" in2="effect1_backgroundBlur_57_269" result="shape"/>
</filter>
<filter id="filter9_b_57_269" x="318.113" y="237.874" width="321.423" height="318.75" filterUnits="userSpaceOnUse" color-interpolation-filters="sRGB">
<feFlood flood-opacity="0" result="BackgroundImageFix"/>
<feGaussianBlur in="BackgroundImage" stdDeviation="31"/>
<feComposite in2="SourceAlpha" operator="in" result="effect1_backgroundBlur_57_269"/>
<feBlend mode="normal" in="SourceGraphic" in2="effect1_backgroundBlur_57_269" result="shape"/>
</filter>
<filter id="filter10_b_57_269" x="335.529" y="255.053" width="286.592" height="284.39" filterUnits="userSpaceOnUse" color-interpolation-filters="sRGB">
<feFlood flood-opacity="0" result="BackgroundImageFix"/>
<feGaussianBlur in="BackgroundImage" stdDeviation="31"/>
<feComposite in2="SourceAlpha" operator="in" result="effect1_backgroundBlur_57_269"/>
<feBlend mode="normal" in="SourceGraphic" in2="effect1_backgroundBlur_57_269" result="shape"/>
</filter>
<linearGradient id="paint0_linear_57_269" x1="605.207" y1="326.524" x2="354.132" y2="470.913" gradientUnits="userSpaceOnUse">
<stop stop-color="white" stop-opacity="0.51"/>
<stop offset="1" stop-color="white" stop-opacity="0"/>
</linearGradient>
<linearGradient id="paint1_linear_57_269" x1="576.991" y1="319.17" x2="382.774" y2="477.917" gradientUnits="userSpaceOnUse">
<stop stop-color="white" stop-opacity="0.51"/>
<stop offset="1" stop-color="white" stop-opacity="0"/>
</linearGradient>
<linearGradient id="paint2_linear_57_269" x1="553.382" y1="317.1" x2="406.472" y2="479.393" gradientUnits="userSpaceOnUse">
<stop stop-color="white" stop-opacity="0.51"/>
<stop offset="1" stop-color="white" stop-opacity="0"/>
</linearGradient>
<linearGradient id="paint3_linear_57_269" x1="535.21" y1="318.198" x2="424.487" y2="477.722" gradientUnits="userSpaceOnUse">
<stop stop-color="white" stop-opacity="0.51"/>
<stop offset="1" stop-color="white" stop-opacity="0"/>
</linearGradient>
<linearGradient id="paint4_linear_57_269" x1="512.833" y1="324.321" x2="446.334" y2="470.864" gradientUnits="userSpaceOnUse">
<stop stop-color="white" stop-opacity="0.51"/>
<stop offset="1" stop-color="white" stop-opacity="0"/>
</linearGradient>
<linearGradient id="paint5_linear_57_269" x1="515.293" y1="335.849" x2="443.827" y2="459.499" gradientUnits="userSpaceOnUse">
<stop stop-color="white" stop-opacity="0.51"/>
<stop offset="1" stop-color="white" stop-opacity="0"/>
</linearGradient>
<linearGradient id="paint6_linear_57_269" x1="514.756" y1="352.498" x2="444.094" y2="442.936" gradientUnits="userSpaceOnUse">
<stop stop-color="white" stop-opacity="0.51"/>
<stop offset="1" stop-color="white" stop-opacity="0"/>
</linearGradient>
<linearGradient id="paint7_linear_57_269" x1="479.158" y1="440.12" x2="479.158" y2="476.293" gradientUnits="userSpaceOnUse">
<stop stop-color="white"/>
<stop offset="1" stop-color="white" stop-opacity="0"/>
</linearGradient>
<linearGradient id="paint8_linear_57_269" x1="479.158" y1="440.12" x2="479.158" y2="476.293" gradientUnits="userSpaceOnUse">
<stop stop-color="white"/>
<stop offset="1" stop-color="white" stop-opacity="0"/>
</linearGradient>
<linearGradient id="paint9_linear_57_269" x1="479.158" y1="440.12" x2="479.158" y2="476.293" gradientUnits="userSpaceOnUse">
<stop stop-color="white"/>
<stop offset="1" stop-color="white" stop-opacity="0"/>
</linearGradient>
<linearGradient id="paint10_linear_57_269" x1="479.158" y1="440.12" x2="479.158" y2="476.293" gradientUnits="userSpaceOnUse">
<stop stop-color="white"/>
<stop offset="1" stop-color="white" stop-opacity="0"/>
</linearGradient>
<linearGradient id="paint11_linear_57_269" x1="479.158" y1="440.12" x2="479.158" y2="476.293" gradientUnits="userSpaceOnUse">
<stop stop-color="white"/>
<stop offset="1" stop-color="white" stop-opacity="0"/>
</linearGradient>
<linearGradient id="paint12_linear_57_269" x1="479.158" y1="440.12" x2="479.158" y2="476.293" gradientUnits="userSpaceOnUse">
<stop stop-color="white"/>
<stop offset="1" stop-color="white" stop-opacity="0"/>
</linearGradient>
<linearGradient id="paint13_linear_57_269" x1="479.158" y1="440.12" x2="479.158" y2="476.293" gradientUnits="userSpaceOnUse">
<stop stop-color="white"/>
<stop offset="1" stop-color="white" stop-opacity="0"/>
</linearGradient>
<linearGradient id="paint14_linear_57_269" x1="479.158" y1="440.12" x2="479.158" y2="476.293" gradientUnits="userSpaceOnUse">
<stop stop-color="white"/>
<stop offset="1" stop-color="white" stop-opacity="0"/>
</linearGradient>
<linearGradient id="paint15_linear_57_269" x1="479.158" y1="440.12" x2="479.158" y2="476.293" gradientUnits="userSpaceOnUse">
<stop stop-color="white"/>
<stop offset="1" stop-color="white" stop-opacity="0"/>
</linearGradient>
<linearGradient id="paint16_linear_57_269" x1="479.158" y1="440.12" x2="479.158" y2="476.293" gradientUnits="userSpaceOnUse">
<stop stop-color="white"/>
<stop offset="1" stop-color="white" stop-opacity="0"/>
</linearGradient>
<linearGradient id="paint17_linear_57_269" x1="479.158" y1="440.12" x2="479.158" y2="476.293" gradientUnits="userSpaceOnUse">
<stop stop-color="white"/>
<stop offset="1" stop-color="white" stop-opacity="0"/>
</linearGradient>
<linearGradient id="paint18_linear_57_269" x1="479.491" y1="502.275" x2="479.491" y2="538.448" gradientUnits="userSpaceOnUse">
<stop stop-color="white"/>
<stop offset="1" stop-color="white" stop-opacity="0"/>
</linearGradient>
<linearGradient id="paint19_linear_57_269" x1="479.491" y1="502.275" x2="479.491" y2="538.448" gradientUnits="userSpaceOnUse">
<stop stop-color="white"/>
<stop offset="1" stop-color="white" stop-opacity="0"/>
</linearGradient>
<linearGradient id="paint20_linear_57_269" x1="479.491" y1="502.275" x2="479.491" y2="538.448" gradientUnits="userSpaceOnUse">
<stop stop-color="white"/>
<stop offset="1" stop-color="white" stop-opacity="0"/>
</linearGradient>
<linearGradient id="paint21_linear_57_269" x1="479.491" y1="502.275" x2="479.491" y2="538.448" gradientUnits="userSpaceOnUse">
<stop stop-color="white"/>
<stop offset="1" stop-color="white" stop-opacity="0"/>
</linearGradient>
<linearGradient id="paint22_linear_57_269" x1="479.491" y1="502.275" x2="479.491" y2="538.448" gradientUnits="userSpaceOnUse">
<stop stop-color="white"/>
<stop offset="1" stop-color="white" stop-opacity="0"/>
</linearGradient>
<linearGradient id="paint23_linear_57_269" x1="479.491" y1="502.275" x2="479.491" y2="538.448" gradientUnits="userSpaceOnUse">
<stop stop-color="white"/>
<stop offset="1" stop-color="white" stop-opacity="0"/>
</linearGradient>
<linearGradient id="paint24_linear_57_269" x1="479.491" y1="502.275" x2="479.491" y2="538.448" gradientUnits="userSpaceOnUse">
<stop stop-color="white"/>
<stop offset="1" stop-color="white" stop-opacity="0"/>
</linearGradient>
<linearGradient id="paint25_linear_57_269" x1="479.491" y1="502.275" x2="479.491" y2="538.448" gradientUnits="userSpaceOnUse">
<stop stop-color="white"/>
<stop offset="1" stop-color="white" stop-opacity="0"/>
</linearGradient>
<linearGradient id="paint26_linear_57_269" x1="479.491" y1="502.275" x2="479.491" y2="538.448" gradientUnits="userSpaceOnUse">
<stop stop-color="white"/>
<stop offset="1" stop-color="white" stop-opacity="0"/>
</linearGradient>
<linearGradient id="paint27_linear_57_269" x1="479.491" y1="502.275" x2="479.491" y2="538.448" gradientUnits="userSpaceOnUse">
<stop stop-color="white"/>
<stop offset="1" stop-color="white" stop-opacity="0"/>
</linearGradient>
<linearGradient id="paint28_linear_57_269" x1="479.491" y1="502.275" x2="479.491" y2="538.448" gradientUnits="userSpaceOnUse">
<stop stop-color="white"/>
<stop offset="1" stop-color="white" stop-opacity="0"/>
</linearGradient>
<linearGradient id="paint29_linear_57_269" x1="479.158" y1="564.43" x2="479.158" y2="600.603" gradientUnits="userSpaceOnUse">
<stop stop-color="white"/>
<stop offset="1" stop-color="white" stop-opacity="0"/>
</linearGradient>
<linearGradient id="paint30_linear_57_269" x1="479.158" y1="564.43" x2="479.158" y2="600.603" gradientUnits="userSpaceOnUse">
<stop stop-color="white"/>
<stop offset="1" stop-color="white" stop-opacity="0"/>
</linearGradient>
<linearGradient id="paint31_linear_57_269" x1="479.158" y1="564.43" x2="479.158" y2="600.603" gradientUnits="userSpaceOnUse">
<stop stop-color="white"/>
<stop offset="1" stop-color="white" stop-opacity="0"/>
</linearGradient>
<linearGradient id="paint32_linear_57_269" x1="479.158" y1="564.43" x2="479.158" y2="600.603" gradientUnits="userSpaceOnUse">
<stop stop-color="white"/>
<stop offset="1" stop-color="white" stop-opacity="0"/>
</linearGradient>
<linearGradient id="paint33_linear_57_269" x1="479.158" y1="564.43" x2="479.158" y2="600.603" gradientUnits="userSpaceOnUse">
<stop stop-color="white"/>
<stop offset="1" stop-color="white" stop-opacity="0"/>
</linearGradient>
<linearGradient id="paint34_linear_57_269" x1="479.158" y1="564.43" x2="479.158" y2="600.603" gradientUnits="userSpaceOnUse">
<stop stop-color="white"/>
<stop offset="1" stop-color="white" stop-opacity="0"/>
</linearGradient>
<linearGradient id="paint35_linear_57_269" x1="479.158" y1="564.43" x2="479.158" y2="600.603" gradientUnits="userSpaceOnUse">
<stop stop-color="white"/>
<stop offset="1" stop-color="white" stop-opacity="0"/>
</linearGradient>
<linearGradient id="paint36_linear_57_269" x1="479.158" y1="564.43" x2="479.158" y2="600.603" gradientUnits="userSpaceOnUse">
<stop stop-color="white"/>
<stop offset="1" stop-color="white" stop-opacity="0"/>
</linearGradient>
<linearGradient id="paint37_linear_57_269" x1="479.158" y1="564.43" x2="479.158" y2="600.603" gradientUnits="userSpaceOnUse">
<stop stop-color="white"/>
<stop offset="1" stop-color="white" stop-opacity="0"/>
</linearGradient>
<linearGradient id="paint38_linear_57_269" x1="479.158" y1="564.43" x2="479.158" y2="600.603" gradientUnits="userSpaceOnUse">
<stop stop-color="white"/>
<stop offset="1" stop-color="white" stop-opacity="0"/>
</linearGradient>
<linearGradient id="paint39_linear_57_269" x1="479.158" y1="564.43" x2="479.158" y2="600.603" gradientUnits="userSpaceOnUse">
<stop stop-color="white"/>
<stop offset="1" stop-color="white" stop-opacity="0"/>
</linearGradient>
<linearGradient id="paint40_linear_57_269" x1="479.158" y1="626.587" x2="479.158" y2="662.76" gradientUnits="userSpaceOnUse">
<stop stop-color="white"/>
<stop offset="1" stop-color="white" stop-opacity="0"/>
</linearGradient>
<linearGradient id="paint41_linear_57_269" x1="479.158" y1="626.587" x2="479.158" y2="662.76" gradientUnits="userSpaceOnUse">
<stop stop-color="white"/>
<stop offset="1" stop-color="white" stop-opacity="0"/>
</linearGradient>
<linearGradient id="paint42_linear_57_269" x1="479.158" y1="626.587" x2="479.158" y2="662.76" gradientUnits="userSpaceOnUse">
<stop stop-color="white"/>
<stop offset="1" stop-color="white" stop-opacity="0"/>
</linearGradient>
<linearGradient id="paint43_linear_57_269" x1="479.158" y1="626.587" x2="479.158" y2="662.76" gradientUnits="userSpaceOnUse">
<stop stop-color="white"/>
<stop offset="1" stop-color="white" stop-opacity="0"/>
</linearGradient>
<linearGradient id="paint44_linear_57_269" x1="479.158" y1="626.587" x2="479.158" y2="662.76" gradientUnits="userSpaceOnUse">
<stop stop-color="white"/>
<stop offset="1" stop-color="white" stop-opacity="0"/>
</linearGradient>
<linearGradient id="paint45_linear_57_269" x1="479.158" y1="626.587" x2="479.158" y2="662.76" gradientUnits="userSpaceOnUse">
<stop stop-color="white"/>
<stop offset="1" stop-color="white" stop-opacity="0"/>
</linearGradient>
<linearGradient id="paint46_linear_57_269" x1="479.158" y1="626.587" x2="479.158" y2="662.76" gradientUnits="userSpaceOnUse">
<stop stop-color="white"/>
<stop offset="1" stop-color="white" stop-opacity="0"/>
</linearGradient>
<linearGradient id="paint47_linear_57_269" x1="479.158" y1="626.587" x2="479.158" y2="662.76" gradientUnits="userSpaceOnUse">
<stop stop-color="white"/>
<stop offset="1" stop-color="white" stop-opacity="0"/>
</linearGradient>
<linearGradient id="paint48_linear_57_269" x1="479.158" y1="626.587" x2="479.158" y2="662.76" gradientUnits="userSpaceOnUse">
<stop stop-color="white"/>
<stop offset="1" stop-color="white" stop-opacity="0"/>
</linearGradient>
<linearGradient id="paint49_linear_57_269" x1="479.158" y1="626.587" x2="479.158" y2="662.76" gradientUnits="userSpaceOnUse">
<stop stop-color="white"/>
<stop offset="1" stop-color="white" stop-opacity="0"/>
</linearGradient>
<linearGradient id="paint50_linear_57_269" x1="479.158" y1="626.587" x2="479.158" y2="662.76" gradientUnits="userSpaceOnUse">
<stop stop-color="white"/>
<stop offset="1" stop-color="white" stop-opacity="0"/>
</linearGradient>
<linearGradient id="paint51_linear_57_269" x1="479.492" y1="688.742" x2="479.492" y2="724.915" gradientUnits="userSpaceOnUse">
<stop stop-color="white"/>
<stop offset="1" stop-color="white" stop-opacity="0"/>
</linearGradient>
<linearGradient id="paint52_linear_57_269" x1="479.492" y1="688.742" x2="479.492" y2="724.915" gradientUnits="userSpaceOnUse">
<stop stop-color="white"/>
<stop offset="1" stop-color="white" stop-opacity="0"/>
</linearGradient>
<linearGradient id="paint53_linear_57_269" x1="479.492" y1="688.742" x2="479.492" y2="724.915" gradientUnits="userSpaceOnUse">
<stop stop-color="white"/>
<stop offset="1" stop-color="white" stop-opacity="0"/>
</linearGradient>
<linearGradient id="paint54_linear_57_269" x1="479.492" y1="688.742" x2="479.492" y2="724.915" gradientUnits="userSpaceOnUse">
<stop stop-color="white"/>
<stop offset="1" stop-color="white" stop-opacity="0"/>
</linearGradient>
<linearGradient id="paint55_linear_57_269" x1="479.492" y1="688.742" x2="479.492" y2="724.915" gradientUnits="userSpaceOnUse">
<stop stop-color="white"/>
<stop offset="1" stop-color="white" stop-opacity="0"/>
</linearGradient>
<linearGradient id="paint56_linear_57_269" x1="479.492" y1="688.742" x2="479.492" y2="724.915" gradientUnits="userSpaceOnUse">
<stop stop-color="white"/>
<stop offset="1" stop-color="white" stop-opacity="0"/>
</linearGradient>
<linearGradient id="paint57_linear_57_269" x1="479.492" y1="688.742" x2="479.492" y2="724.915" gradientUnits="userSpaceOnUse">
<stop stop-color="white"/>
<stop offset="1" stop-color="white" stop-opacity="0"/>
</linearGradient>
<linearGradient id="paint58_linear_57_269" x1="479.492" y1="688.742" x2="479.492" y2="724.915" gradientUnits="userSpaceOnUse">
<stop stop-color="white"/>
<stop offset="1" stop-color="white" stop-opacity="0"/>
</linearGradient>
<linearGradient id="paint59_linear_57_269" x1="479.492" y1="688.742" x2="479.492" y2="724.915" gradientUnits="userSpaceOnUse">
<stop stop-color="white"/>
<stop offset="1" stop-color="white" stop-opacity="0"/>
</linearGradient>
<linearGradient id="paint60_linear_57_269" x1="479.492" y1="688.742" x2="479.492" y2="724.915" gradientUnits="userSpaceOnUse">
<stop stop-color="white"/>
<stop offset="1" stop-color="white" stop-opacity="0"/>
</linearGradient>
<linearGradient id="paint61_linear_57_269" x1="479.492" y1="688.742" x2="479.492" y2="724.915" gradientUnits="userSpaceOnUse">
<stop stop-color="white"/>
<stop offset="1" stop-color="white" stop-opacity="0"/>
</linearGradient>
<linearGradient id="paint62_linear_57_269" x1="479.158" y1="306.366" x2="479.158" y2="342.539" gradientUnits="userSpaceOnUse">
<stop stop-color="white"/>
<stop offset="1" stop-color="white" stop-opacity="0"/>
</linearGradient>
<linearGradient id="paint63_linear_57_269" x1="479.158" y1="306.366" x2="479.158" y2="342.539" gradientUnits="userSpaceOnUse">
<stop stop-color="white"/>
<stop offset="1" stop-color="white" stop-opacity="0"/>
</linearGradient>
<linearGradient id="paint64_linear_57_269" x1="479.158" y1="306.366" x2="479.158" y2="342.539" gradientUnits="userSpaceOnUse">
<stop stop-color="white"/>
<stop offset="1" stop-color="white" stop-opacity="0"/>
</linearGradient>
<linearGradient id="paint65_linear_57_269" x1="479.158" y1="306.366" x2="479.158" y2="342.539" gradientUnits="userSpaceOnUse">
<stop stop-color="white"/>
<stop offset="1" stop-color="white" stop-opacity="0"/>
</linearGradient>
<linearGradient id="paint66_linear_57_269" x1="479.158" y1="306.366" x2="479.158" y2="342.539" gradientUnits="userSpaceOnUse">
<stop stop-color="white"/>
<stop offset="1" stop-color="white" stop-opacity="0"/>
</linearGradient>
<linearGradient id="paint67_linear_57_269" x1="479.158" y1="306.366" x2="479.158" y2="342.539" gradientUnits="userSpaceOnUse">
<stop stop-color="white"/>
<stop offset="1" stop-color="white" stop-opacity="0"/>
</linearGradient>
<linearGradient id="paint68_linear_57_269" x1="479.158" y1="306.366" x2="479.158" y2="342.539" gradientUnits="userSpaceOnUse">
<stop stop-color="white"/>
<stop offset="1" stop-color="white" stop-opacity="0"/>
</linearGradient>
<linearGradient id="paint69_linear_57_269" x1="479.158" y1="306.366" x2="479.158" y2="342.539" gradientUnits="userSpaceOnUse">
<stop stop-color="white"/>
<stop offset="1" stop-color="white" stop-opacity="0"/>
</linearGradient>
<linearGradient id="paint70_linear_57_269" x1="479.158" y1="306.366" x2="479.158" y2="342.539" gradientUnits="userSpaceOnUse">
<stop stop-color="white"/>
<stop offset="1" stop-color="white" stop-opacity="0"/>
</linearGradient>
<linearGradient id="paint71_linear_57_269" x1="479.158" y1="306.366" x2="479.158" y2="342.539" gradientUnits="userSpaceOnUse">
<stop stop-color="white"/>
<stop offset="1" stop-color="white" stop-opacity="0"/>
</linearGradient>
<linearGradient id="paint72_linear_57_269" x1="479.158" y1="306.366" x2="479.158" y2="342.539" gradientUnits="userSpaceOnUse">
<stop stop-color="white"/>
<stop offset="1" stop-color="white" stop-opacity="0"/>
</linearGradient>
<linearGradient id="paint73_linear_57_269" x1="479.158" y1="242.103" x2="479.158" y2="278.277" gradientUnits="userSpaceOnUse">
<stop stop-color="white"/>
<stop offset="1" stop-color="white" stop-opacity="0"/>
</linearGradient>
<linearGradient id="paint74_linear_57_269" x1="479.158" y1="242.103" x2="479.158" y2="278.277" gradientUnits="userSpaceOnUse">
<stop stop-color="white"/>
<stop offset="1" stop-color="white" stop-opacity="0"/>
</linearGradient>
<linearGradient id="paint75_linear_57_269" x1="479.158" y1="242.103" x2="479.158" y2="278.277" gradientUnits="userSpaceOnUse">
<stop stop-color="white"/>
<stop offset="1" stop-color="white" stop-opacity="0"/>
</linearGradient>
<linearGradient id="paint76_linear_57_269" x1="479.158" y1="242.103" x2="479.158" y2="278.277" gradientUnits="userSpaceOnUse">
<stop stop-color="white"/>
<stop offset="1" stop-color="white" stop-opacity="0"/>
</linearGradient>
<linearGradient id="paint77_linear_57_269" x1="479.158" y1="242.103" x2="479.158" y2="278.277" gradientUnits="userSpaceOnUse">
<stop stop-color="white"/>
<stop offset="1" stop-color="white" stop-opacity="0"/>
</linearGradient>
<linearGradient id="paint78_linear_57_269" x1="479.158" y1="242.103" x2="479.158" y2="278.277" gradientUnits="userSpaceOnUse">
<stop stop-color="white"/>
<stop offset="1" stop-color="white" stop-opacity="0"/>
</linearGradient>
<linearGradient id="paint79_linear_57_269" x1="479.158" y1="242.103" x2="479.158" y2="278.277" gradientUnits="userSpaceOnUse">
<stop stop-color="white"/>
<stop offset="1" stop-color="white" stop-opacity="0"/>
</linearGradient>
<linearGradient id="paint80_linear_57_269" x1="479.158" y1="242.103" x2="479.158" y2="278.277" gradientUnits="userSpaceOnUse">
<stop stop-color="white"/>
<stop offset="1" stop-color="white" stop-opacity="0"/>
</linearGradient>
<linearGradient id="paint81_linear_57_269" x1="479.158" y1="242.103" x2="479.158" y2="278.277" gradientUnits="userSpaceOnUse">
<stop stop-color="white"/>
<stop offset="1" stop-color="white" stop-opacity="0"/>
</linearGradient>
<linearGradient id="paint82_linear_57_269" x1="479.158" y1="242.103" x2="479.158" y2="278.277" gradientUnits="userSpaceOnUse">
<stop stop-color="white"/>
<stop offset="1" stop-color="white" stop-opacity="0"/>
</linearGradient>
<linearGradient id="paint83_linear_57_269" x1="479.158" y1="242.103" x2="479.158" y2="278.277" gradientUnits="userSpaceOnUse">
<stop stop-color="white"/>
<stop offset="1" stop-color="white" stop-opacity="0"/>
</linearGradient>
<linearGradient id="paint84_linear_57_269" x1="479.158" y1="177.843" x2="479.158" y2="214.016" gradientUnits="userSpaceOnUse">
<stop stop-color="white"/>
<stop offset="1" stop-color="white" stop-opacity="0"/>
</linearGradient>
<linearGradient id="paint85_linear_57_269" x1="479.158" y1="177.843" x2="479.158" y2="214.016" gradientUnits="userSpaceOnUse">
<stop stop-color="white"/>
<stop offset="1" stop-color="white" stop-opacity="0"/>
</linearGradient>
<linearGradient id="paint86_linear_57_269" x1="479.158" y1="177.843" x2="479.158" y2="214.016" gradientUnits="userSpaceOnUse">
<stop stop-color="white"/>
<stop offset="1" stop-color="white" stop-opacity="0"/>
</linearGradient>
<linearGradient id="paint87_linear_57_269" x1="479.158" y1="177.843" x2="479.158" y2="214.016" gradientUnits="userSpaceOnUse">
<stop stop-color="white"/>
<stop offset="1" stop-color="white" stop-opacity="0"/>
</linearGradient>
<linearGradient id="paint88_linear_57_269" x1="479.158" y1="177.843" x2="479.158" y2="214.016" gradientUnits="userSpaceOnUse">
<stop stop-color="white"/>
<stop offset="1" stop-color="white" stop-opacity="0"/>
</linearGradient>
<linearGradient id="paint89_linear_57_269" x1="479.158" y1="177.843" x2="479.158" y2="214.016" gradientUnits="userSpaceOnUse">
<stop stop-color="white"/>
<stop offset="1" stop-color="white" stop-opacity="0"/>
</linearGradient>
<linearGradient id="paint90_linear_57_269" x1="479.158" y1="177.843" x2="479.158" y2="214.016" gradientUnits="userSpaceOnUse">
<stop stop-color="white"/>
<stop offset="1" stop-color="white" stop-opacity="0"/>
</linearGradient>
<linearGradient id="paint91_linear_57_269" x1="479.158" y1="177.843" x2="479.158" y2="214.016" gradientUnits="userSpaceOnUse">
<stop stop-color="white"/>
<stop offset="1" stop-color="white" stop-opacity="0"/>
</linearGradient>
<linearGradient id="paint92_linear_57_269" x1="479.158" y1="177.843" x2="479.158" y2="214.016" gradientUnits="userSpaceOnUse">
<stop stop-color="white"/>
<stop offset="1" stop-color="white" stop-opacity="0"/>
</linearGradient>
<linearGradient id="paint93_linear_57_269" x1="479.158" y1="177.843" x2="479.158" y2="214.016" gradientUnits="userSpaceOnUse">
<stop stop-color="white"/>
<stop offset="1" stop-color="white" stop-opacity="0"/>
</linearGradient>
<linearGradient id="paint94_linear_57_269" x1="479.158" y1="177.843" x2="479.158" y2="214.016" gradientUnits="userSpaceOnUse">
<stop stop-color="white"/>
<stop offset="1" stop-color="white" stop-opacity="0"/>
</linearGradient>
<linearGradient id="paint95_linear_57_269" x1="479.491" y1="113.581" x2="479.491" y2="149.755" gradientUnits="userSpaceOnUse">
<stop stop-color="white"/>
<stop offset="1" stop-color="white" stop-opacity="0"/>
</linearGradient>
<linearGradient id="paint96_linear_57_269" x1="479.491" y1="113.581" x2="479.491" y2="149.755" gradientUnits="userSpaceOnUse">
<stop stop-color="white"/>
<stop offset="1" stop-color="white" stop-opacity="0"/>
</linearGradient>
<linearGradient id="paint97_linear_57_269" x1="479.491" y1="113.581" x2="479.491" y2="149.755" gradientUnits="userSpaceOnUse">
<stop stop-color="white"/>
<stop offset="1" stop-color="white" stop-opacity="0"/>
</linearGradient>
<linearGradient id="paint98_linear_57_269" x1="479.491" y1="113.581" x2="479.491" y2="149.755" gradientUnits="userSpaceOnUse">
<stop stop-color="white"/>
<stop offset="1" stop-color="white" stop-opacity="0"/>
</linearGradient>
<linearGradient id="paint99_linear_57_269" x1="479.491" y1="113.581" x2="479.491" y2="149.755" gradientUnits="userSpaceOnUse">
<stop stop-color="white"/>
<stop offset="1" stop-color="white" stop-opacity="0"/>
</linearGradient>
<linearGradient id="paint100_linear_57_269" x1="479.491" y1="113.581" x2="479.491" y2="149.755" gradientUnits="userSpaceOnUse">
<stop stop-color="white"/>
<stop offset="1" stop-color="white" stop-opacity="0"/>
</linearGradient>
<linearGradient id="paint101_linear_57_269" x1="479.491" y1="113.581" x2="479.491" y2="149.755" gradientUnits="userSpaceOnUse">
<stop stop-color="white"/>
<stop offset="1" stop-color="white" stop-opacity="0"/>
</linearGradient>
<linearGradient id="paint102_linear_57_269" x1="479.491" y1="113.581" x2="479.491" y2="149.755" gradientUnits="userSpaceOnUse">
<stop stop-color="white"/>
<stop offset="1" stop-color="white" stop-opacity="0"/>
</linearGradient>
<linearGradient id="paint103_linear_57_269" x1="479.491" y1="113.581" x2="479.491" y2="149.755" gradientUnits="userSpaceOnUse">
<stop stop-color="white"/>
<stop offset="1" stop-color="white" stop-opacity="0"/>
</linearGradient>
<linearGradient id="paint104_linear_57_269" x1="479.491" y1="113.581" x2="479.491" y2="149.755" gradientUnits="userSpaceOnUse">
<stop stop-color="white"/>
<stop offset="1" stop-color="white" stop-opacity="0"/>
</linearGradient>
<linearGradient id="paint105_linear_57_269" x1="479.491" y1="113.581" x2="479.491" y2="149.755" gradientUnits="userSpaceOnUse">
<stop stop-color="white"/>
<stop offset="1" stop-color="white" stop-opacity="0"/>
</linearGradient>
<linearGradient id="paint106_linear_57_269" x1="479.492" y1="49.3193" x2="479.492" y2="85.4925" gradientUnits="userSpaceOnUse">
<stop stop-color="white"/>
<stop offset="1" stop-color="white" stop-opacity="0"/>
</linearGradient>
<linearGradient id="paint107_linear_57_269" x1="479.492" y1="49.3193" x2="479.492" y2="85.4925" gradientUnits="userSpaceOnUse">
<stop stop-color="white"/>
<stop offset="1" stop-color="white" stop-opacity="0"/>
</linearGradient>
<linearGradient id="paint108_linear_57_269" x1="479.492" y1="49.3193" x2="479.492" y2="85.4925" gradientUnits="userSpaceOnUse">
<stop stop-color="white"/>
<stop offset="1" stop-color="white" stop-opacity="0"/>
</linearGradient>
<linearGradient id="paint109_linear_57_269" x1="479.492" y1="49.3193" x2="479.492" y2="85.4925" gradientUnits="userSpaceOnUse">
<stop stop-color="white"/>
<stop offset="1" stop-color="white" stop-opacity="0"/>
</linearGradient>
<linearGradient id="paint110_linear_57_269" x1="479.492" y1="49.3193" x2="479.492" y2="85.4925" gradientUnits="userSpaceOnUse">
<stop stop-color="white"/>
<stop offset="1" stop-color="white" stop-opacity="0"/>
</linearGradient>
<linearGradient id="paint111_linear_57_269" x1="479.492" y1="49.3193" x2="479.492" y2="85.4925" gradientUnits="userSpaceOnUse">
<stop stop-color="white"/>
<stop offset="1" stop-color="white" stop-opacity="0"/>
</linearGradient>
<linearGradient id="paint112_linear_57_269" x1="479.492" y1="49.3193" x2="479.492" y2="85.4925" gradientUnits="userSpaceOnUse">
<stop stop-color="white"/>
<stop offset="1" stop-color="white" stop-opacity="0"/>
</linearGradient>
<linearGradient id="paint113_linear_57_269" x1="479.492" y1="49.3193" x2="479.492" y2="85.4925" gradientUnits="userSpaceOnUse">
<stop stop-color="white"/>
<stop offset="1" stop-color="white" stop-opacity="0"/>
</linearGradient>
<linearGradient id="paint114_linear_57_269" x1="479.492" y1="49.3193" x2="479.492" y2="85.4925" gradientUnits="userSpaceOnUse">
<stop stop-color="white"/>
<stop offset="1" stop-color="white" stop-opacity="0"/>
</linearGradient>
<linearGradient id="paint115_linear_57_269" x1="479.492" y1="49.3193" x2="479.492" y2="85.4925" gradientUnits="userSpaceOnUse">
<stop stop-color="white"/>
<stop offset="1" stop-color="white" stop-opacity="0"/>
</linearGradient>
<linearGradient id="paint116_linear_57_269" x1="479.492" y1="49.3193" x2="479.492" y2="85.4925" gradientUnits="userSpaceOnUse">
<stop stop-color="white"/>
<stop offset="1" stop-color="white" stop-opacity="0"/>
</linearGradient>
</defs>
</svg>
