<svg width="500" height="595" viewBox="0 0 500 595" fill="none" xmlns="http://www.w3.org/2000/svg">
<circle cx="202.092" cy="297.092" r="204" stroke="white" stroke-opacity="0.09"/>
<path d="M380.53 297.092C380.53 395.641 300.64 475.53 202.092 475.53C103.544 475.53 23.6547 395.641 23.6547 297.092C23.6547 198.544 103.544 118.655 202.092 118.655C300.64 118.655 380.53 198.544 380.53 297.092Z" stroke="white" stroke-opacity="0.09"/>
<path d="M354.967 297.092C354.967 381.523 286.523 449.967 202.092 449.967C117.662 449.967 49.2172 381.523 49.2172 297.092C49.2172 212.662 117.662 144.217 202.092 144.217C286.523 144.217 354.967 212.662 354.967 297.092Z" stroke="white" stroke-opacity="0.09"/>
<path d="M329.405 297.092C329.405 367.405 272.405 424.405 202.092 424.405C131.779 424.405 74.7797 367.405 74.7797 297.092C74.7797 226.78 131.779 169.78 202.092 169.78C272.405 169.78 329.405 226.78 329.405 297.092Z" stroke="white" stroke-opacity="0.09"/>
<circle cx="202.092" cy="297.092" r="101.75" stroke="white" stroke-opacity="0.09"/>
<path d="M278.28 297.092C278.28 339.169 244.169 373.28 202.092 373.28C160.015 373.28 125.905 339.169 125.905 297.092C125.905 255.015 160.015 220.905 202.092 220.905C244.169 220.905 278.28 255.015 278.28 297.092Z" stroke="white" stroke-opacity="0.09"/>
<path d="M252.717 297.092C252.717 325.052 230.052 347.717 202.092 347.717C174.133 347.717 151.467 325.052 151.467 297.092C151.467 269.133 174.133 246.467 202.092 246.467C230.052 246.467 252.717 269.133 252.717 297.092Z" stroke="white" stroke-opacity="0.09"/>
<path d="M227.155 297.092C227.155 310.934 215.934 322.155 202.092 322.155C188.251 322.155 177.03 310.934 177.03 297.092C177.03 283.251 188.251 272.03 202.092 272.03C215.934 272.03 227.155 283.251 227.155 297.092Z" stroke="white" stroke-opacity="0.09"/>
<mask id="path-9-inside-1_40_388" fill="white">
<path d="M202.092 143.717C226.379 143.717 250.318 149.485 271.94 160.545C293.562 171.606 312.249 187.643 326.462 207.336C340.674 227.03 350.007 249.817 353.692 273.823C357.376 297.828 355.308 322.366 347.656 345.416L202.092 297.092V143.717Z"/>
</mask>
<path d="M202.092 143.717C226.379 143.717 250.318 149.485 271.94 160.545C293.562 171.606 312.249 187.643 326.462 207.336C340.674 227.03 350.007 249.817 353.692 273.823C357.376 297.828 355.308 322.366 347.656 345.416L202.092 297.092V143.717Z" fill="#5388D8" fill-opacity="0.3" stroke="#5388D8" stroke-width="2" mask="url(#path-9-inside-1_40_388)"/>
<mask id="path-10-inside-2_40_388" fill="white">
<path d="M307.407 333.313C301.132 351.774 290.086 368.247 275.39 381.061C260.694 393.875 242.87 402.575 223.727 406.278L202.731 297.732L307.407 333.313Z"/>
</mask>
<path d="M307.407 333.313C301.132 351.774 290.086 368.247 275.39 381.061C260.694 393.875 242.87 402.575 223.727 406.278L202.731 297.732L307.407 333.313Z" fill="#F4BE37" fill-opacity="0.3" stroke="#F4BE37" stroke-width="2" mask="url(#path-10-inside-2_40_388)"/>
<mask id="path-11-inside-3_40_388" fill="white">
<path d="M231.63 467.092C203.472 471.985 174.539 469.806 147.431 460.752C120.323 451.698 95.8877 436.052 76.3213 415.22C56.7549 394.387 42.6696 369.021 35.3308 341.399C27.9919 313.777 27.6293 284.764 34.2755 256.967L202.092 297.092L231.63 467.092Z"/>
</mask>
<path d="M231.63 467.092C203.472 471.985 174.539 469.806 147.431 460.752C120.323 451.698 95.8877 436.052 76.3213 415.22C56.7549 394.387 42.6696 369.021 35.3308 341.399C27.9919 313.777 27.6293 284.764 34.2755 256.967L202.092 297.092L231.63 467.092Z" fill="#FF9F40" fill-opacity="0.3" stroke="#FF9F40" stroke-width="2" mask="url(#path-11-inside-3_40_388)"/>
<g style="mix-blend-mode:color-dodge">
<g style="mix-blend-mode:color-dodge" filter="url(#filter0_b_40_388)">
<rect x="284.115" width="435.87" height="435.87" transform="rotate(60.4341 284.115 0)" fill="white" fill-opacity="0.05"/>
<rect x="283.927" y="0.681607" width="434.87" height="434.87" transform="rotate(60.4341 283.927 0.681607)" stroke="url(#paint0_linear_40_388)"/>
</g>
<g style="mix-blend-mode:color-dodge" filter="url(#filter1_b_40_388)">
<rect x="230.612" y="31.1387" width="378.271" height="378.271" transform="rotate(51.1207 230.612 31.1387)" fill="white" fill-opacity="0.05"/>
<rect x="230.536" y="31.8417" width="377.271" height="377.271" transform="rotate(51.1207 230.536 31.8417)" stroke="url(#paint1_linear_40_388)"/>
</g>
<g style="mix-blend-mode:color-dodge" filter="url(#filter2_b_40_388)">
<rect x="192.056" y="63.4033" width="330.791" height="330.791" transform="rotate(42.5408 192.056 63.4033)" fill="white" fill-opacity="0.05"/>
<rect x="192.086" y="64.1098" width="329.791" height="329.791" transform="rotate(42.5408 192.086 64.1098)" stroke="url(#paint2_linear_40_388)"/>
</g>
<g style="mix-blend-mode:color-dodge" filter="url(#filter3_b_40_388)">
<rect x="166.468" y="92.3271" width="293.931" height="293.931" transform="rotate(35.1307 166.468 92.3271)" fill="white" fill-opacity="0.05"/>
<rect x="166.589" y="93.0238" width="292.931" height="292.931" transform="rotate(35.1307 166.589 93.0238)" stroke="url(#paint3_linear_40_388)"/>
</g>
<g style="mix-blend-mode:color-dodge" filter="url(#filter4_b_40_388)">
<rect x="142.217" y="135.202" width="244.104" height="244.104" transform="rotate(24.7032 142.217 135.202)" fill="white" fill-opacity="0.05"/>
<rect x="142.463" y="135.865" width="243.104" height="243.104" transform="rotate(24.7032 142.463 135.865)" stroke="url(#paint4_linear_40_388)"/>
</g>
<g style="mix-blend-mode:color-dodge" filter="url(#filter5_b_40_388)">
<rect x="163.434" y="149.037" width="216.401" height="216.401" transform="rotate(30.3663 163.434 149.037)" fill="white" fill-opacity="0.05"/>
<rect x="163.612" y="149.721" width="215.401" height="215.401" transform="rotate(30.3663 163.612 149.721)" stroke="url(#paint5_linear_40_388)"/>
</g>
<g style="mix-blend-mode:color-dodge" filter="url(#filter6_b_40_388)">
<rect x="187.943" y="175.159" width="173.597" height="173.597" transform="rotate(38.3809 187.943 175.159)" fill="white" fill-opacity="0.05"/>
<rect x="188.024" y="175.861" width="172.597" height="172.597" transform="rotate(38.3809 188.024 175.861)" stroke="url(#paint6_linear_40_388)"/>
</g>
</g>
<defs>
<filter id="filter0_b_40_388" x="-157" y="-62" width="718.184" height="718.185" filterUnits="userSpaceOnUse" color-interpolation-filters="sRGB">
<feFlood flood-opacity="0" result="BackgroundImageFix"/>
<feGaussianBlur in="BackgroundImage" stdDeviation="31"/>
<feComposite in2="SourceAlpha" operator="in" result="effect1_backgroundBlur_40_388"/>
<feBlend mode="normal" in="SourceGraphic" in2="effect1_backgroundBlur_40_388" result="shape"/>
</filter>
<filter id="filter1_b_40_388" x="-125.861" y="-30.8613" width="655.907" height="655.907" filterUnits="userSpaceOnUse" color-interpolation-filters="sRGB">
<feFlood flood-opacity="0" result="BackgroundImageFix"/>
<feGaussianBlur in="BackgroundImage" stdDeviation="31"/>
<feComposite in2="SourceAlpha" operator="in" result="effect1_backgroundBlur_40_388"/>
<feBlend mode="normal" in="SourceGraphic" in2="effect1_backgroundBlur_40_388" result="shape"/>
</filter>
<filter id="filter2_b_40_388" x="-93.5967" y="1.40332" width="591.378" height="591.377" filterUnits="userSpaceOnUse" color-interpolation-filters="sRGB">
<feFlood flood-opacity="0" result="BackgroundImageFix"/>
<feGaussianBlur in="BackgroundImage" stdDeviation="31"/>
<feComposite in2="SourceAlpha" operator="in" result="effect1_backgroundBlur_40_388"/>
<feBlend mode="normal" in="SourceGraphic" in2="effect1_backgroundBlur_40_388" result="shape"/>
</filter>
<filter id="filter3_b_40_388" x="-64.6726" y="30.3271" width="533.53" height="533.529" filterUnits="userSpaceOnUse" color-interpolation-filters="sRGB">
<feFlood flood-opacity="0" result="BackgroundImageFix"/>
<feGaussianBlur in="BackgroundImage" stdDeviation="31"/>
<feComposite in2="SourceAlpha" operator="in" result="effect1_backgroundBlur_40_388"/>
<feBlend mode="normal" in="SourceGraphic" in2="effect1_backgroundBlur_40_388" result="shape"/>
</filter>
<filter id="filter4_b_40_388" x="-21.7982" y="73.2017" width="447.781" height="447.781" filterUnits="userSpaceOnUse" color-interpolation-filters="sRGB">
<feFlood flood-opacity="0" result="BackgroundImageFix"/>
<feGaussianBlur in="BackgroundImage" stdDeviation="31"/>
<feComposite in2="SourceAlpha" operator="in" result="effect1_backgroundBlur_40_388"/>
<feBlend mode="normal" in="SourceGraphic" in2="effect1_backgroundBlur_40_388" result="shape"/>
</filter>
<filter id="filter5_b_40_388" x="-7.96265" y="87.0371" width="420.11" height="420.11" filterUnits="userSpaceOnUse" color-interpolation-filters="sRGB">
<feFlood flood-opacity="0" result="BackgroundImageFix"/>
<feGaussianBlur in="BackgroundImage" stdDeviation="31"/>
<feComposite in2="SourceAlpha" operator="in" result="effect1_backgroundBlur_40_388"/>
<feBlend mode="normal" in="SourceGraphic" in2="effect1_backgroundBlur_40_388" result="shape"/>
</filter>
<filter id="filter6_b_40_388" x="18.1588" y="113.159" width="367.867" height="367.867" filterUnits="userSpaceOnUse" color-interpolation-filters="sRGB">
<feFlood flood-opacity="0" result="BackgroundImageFix"/>
<feGaussianBlur in="BackgroundImage" stdDeviation="31"/>
<feComposite in2="SourceAlpha" operator="in" result="effect1_backgroundBlur_40_388"/>
<feBlend mode="normal" in="SourceGraphic" in2="effect1_backgroundBlur_40_388" result="shape"/>
</filter>
<linearGradient id="paint0_linear_40_388" x1="502.05" y1="0" x2="502.05" y2="435.87" gradientUnits="userSpaceOnUse">
<stop stop-color="white" stop-opacity="0.51"/>
<stop offset="1" stop-color="white" stop-opacity="0"/>
</linearGradient>
<linearGradient id="paint1_linear_40_388" x1="419.747" y1="31.1387" x2="419.747" y2="409.41" gradientUnits="userSpaceOnUse">
<stop stop-color="white" stop-opacity="0.51"/>
<stop offset="1" stop-color="white" stop-opacity="0"/>
</linearGradient>
<linearGradient id="paint2_linear_40_388" x1="357.451" y1="63.4033" x2="357.451" y2="394.194" gradientUnits="userSpaceOnUse">
<stop stop-color="white" stop-opacity="0.51"/>
<stop offset="1" stop-color="white" stop-opacity="0"/>
</linearGradient>
<linearGradient id="paint3_linear_40_388" x1="313.433" y1="92.3271" x2="313.433" y2="386.258" gradientUnits="userSpaceOnUse">
<stop stop-color="white" stop-opacity="0.51"/>
<stop offset="1" stop-color="white" stop-opacity="0"/>
</linearGradient>
<linearGradient id="paint4_linear_40_388" x1="264.269" y1="135.202" x2="264.269" y2="379.306" gradientUnits="userSpaceOnUse">
<stop stop-color="white" stop-opacity="0.51"/>
<stop offset="1" stop-color="white" stop-opacity="0"/>
</linearGradient>
<linearGradient id="paint5_linear_40_388" x1="271.634" y1="149.037" x2="271.634" y2="365.438" gradientUnits="userSpaceOnUse">
<stop stop-color="white" stop-opacity="0.51"/>
<stop offset="1" stop-color="white" stop-opacity="0"/>
</linearGradient>
<linearGradient id="paint6_linear_40_388" x1="274.741" y1="175.159" x2="274.741" y2="348.756" gradientUnits="userSpaceOnUse">
<stop stop-color="white" stop-opacity="0.51"/>
<stop offset="1" stop-color="white" stop-opacity="0"/>
</linearGradient>
</defs>
</svg>
