<svg width="53" height="53" viewBox="0 0 53 53" fill="none" xmlns="http://www.w3.org/2000/svg">
<g clip-path="url(#clip0_57_352)">
<path fill-rule="evenodd" clip-rule="evenodd" d="M15.5057 0.158295C18.319 0.0287809 19.216 0 26.3825 0C33.5489 0 34.4459 0.0311793 37.2569 0.158295C40.0678 0.285411 41.9865 0.733913 43.6654 1.38388C45.4234 2.04824 47.0184 3.08675 48.3375 4.42986C49.6806 5.74659 50.7167 7.33913 51.3787 9.09956C52.0311 10.7784 52.4772 12.6972 52.6067 15.5033C52.7362 18.3214 52.765 19.2184 52.765 26.3825C52.765 33.5489 52.7338 34.4459 52.6067 37.2593C52.4796 40.0654 52.0311 41.9841 51.3787 43.663C50.7167 45.4237 49.6789 47.0189 48.3375 48.3375C47.0184 49.6806 45.4234 50.7167 43.6654 51.3787C41.9865 52.0311 40.0678 52.4772 37.2617 52.6067C34.4459 52.7362 33.5489 52.765 26.3825 52.765C19.216 52.765 18.319 52.7338 15.5057 52.6067C12.6996 52.4796 10.7808 52.0311 9.10196 51.3787C7.34134 50.7166 5.74615 49.6788 4.42746 48.3375C3.08526 47.02 2.0466 45.4256 1.38388 43.6654C0.733913 41.9865 0.287809 40.0678 0.158295 37.2617C0.0287809 34.4435 0 33.5465 0 26.3825C0 19.216 0.0311793 18.319 0.158295 15.5081C0.285411 12.6972 0.733913 10.7784 1.38388 9.09956C2.04758 7.33932 3.08704 5.74494 4.42986 4.42746C5.74668 3.08555 7.34026 2.04691 9.09956 1.38388C10.7784 0.733913 12.6972 0.287809 15.5033 0.158295H15.5057ZM37.0434 4.90714C34.2613 4.78003 33.4266 4.75365 26.3825 4.75365C19.3384 4.75365 18.5037 4.78003 15.7216 4.90714C13.1481 5.02466 11.7522 5.45398 10.8216 5.81614C9.59123 6.29582 8.71102 6.86424 7.78763 7.78763C6.91232 8.63919 6.23869 9.67586 5.81614 10.8216C5.45398 11.7522 5.02466 13.1481 4.90714 15.7216C4.78003 18.5037 4.75365 19.3384 4.75365 26.3825C4.75365 33.4266 4.78003 34.2613 4.90714 37.0434C5.02466 39.6169 5.45398 41.0128 5.81614 41.9434C6.23826 43.0874 6.91221 44.1259 7.78763 44.9773C8.63907 45.8528 9.67758 46.5267 10.8216 46.9488C11.7522 47.311 13.1481 47.7403 15.7216 47.8578C18.5037 47.985 19.336 48.0113 26.3825 48.0113C33.429 48.0113 34.2613 47.985 37.0434 47.8578C39.6169 47.7403 41.0128 47.311 41.9434 46.9488C43.1737 46.4692 44.054 45.9007 44.9773 44.9773C45.8528 44.1259 46.5267 43.0874 46.9488 41.9434C47.311 41.0128 47.7403 39.6169 47.8578 37.0434C47.985 34.2613 48.0113 33.4266 48.0113 26.3825C48.0113 19.3384 47.985 18.5037 47.8578 15.7216C47.7403 13.1481 47.311 11.7522 46.9488 10.8216C46.4692 9.59123 45.9007 8.71102 44.9773 7.78763C44.1257 6.91238 43.0891 6.23876 41.9434 5.81614C41.0128 5.45398 39.6169 5.02466 37.0434 4.90714ZM23.0127 34.5155C24.8947 35.2989 26.9902 35.4046 28.9414 34.8146C30.8926 34.2246 32.5785 32.9755 33.7111 31.2806C34.8437 29.5857 35.3527 27.5502 35.1512 25.5217C34.9497 23.4932 34.0502 21.5976 32.6064 20.1586C31.6859 19.2388 30.573 18.5344 29.3477 18.0963C28.1224 17.6582 26.8152 17.4973 25.5202 17.625C24.2253 17.7527 22.9747 18.166 21.8586 18.835C20.7425 19.5041 19.7887 20.4122 19.0657 21.4942C18.3427 22.5761 17.8686 23.8049 17.6775 25.0921C17.4864 26.3792 17.5831 27.6927 17.9606 28.938C18.3381 30.1833 18.987 31.3295 19.8605 32.2939C20.7341 33.2583 21.8107 34.0171 23.0127 34.5155ZM16.7937 16.7937C18.0529 15.5344 19.5478 14.5356 21.193 13.8541C22.8383 13.1726 24.6017 12.8218 26.3825 12.8218C28.1633 12.8218 29.9267 13.1726 31.5719 13.8541C33.2172 14.5356 34.7121 15.5344 35.9713 16.7937C37.2305 18.0529 38.2294 19.5478 38.9109 21.193C39.5924 22.8383 39.9432 24.6017 39.9432 26.3825C39.9432 28.1633 39.5924 29.9267 38.9109 31.5719C38.2294 33.2172 37.2305 34.7121 35.9713 35.9713C33.4282 38.5144 29.979 39.9432 26.3825 39.9432C22.786 39.9432 19.3368 38.5144 16.7937 35.9713C14.2505 33.4282 12.8218 29.979 12.8218 26.3825C12.8218 22.786 14.2505 19.3368 16.7937 16.7937ZM42.9507 14.8413C43.2627 14.547 43.5125 14.193 43.6853 13.8004C43.8581 13.4077 43.9504 12.9844 43.9566 12.5555C43.9629 12.1266 43.883 11.7007 43.7217 11.3032C43.5605 10.9057 43.3211 10.5446 43.0178 10.2413C42.7144 9.93797 42.3533 9.69858 41.9558 9.53731C41.5583 9.37604 41.1325 9.29617 40.7035 9.30242C40.2746 9.30868 39.8513 9.40093 39.4587 9.57372C39.066 9.7465 38.7121 9.99631 38.4177 10.3084C37.8452 10.9152 37.5318 11.7213 37.544 12.5555C37.5561 13.3897 37.8929 14.1863 38.4828 14.7762C39.0728 15.3661 39.8694 15.7029 40.7035 15.7151C41.5377 15.7272 42.3438 15.4138 42.9507 14.8413Z" fill="white"/>
</g>
<defs>
<clipPath id="clip0_57_352">
<rect width="52.765" height="52.765" fill="white"/>
</clipPath>
</defs>
</svg>
