<svg width="53" height="53" viewBox="0 0 53 53" fill="none" xmlns="http://www.w3.org/2000/svg">
<g clip-path="url(#clip0_57_353)">
<path d="M26.3825 52.765C40.9531 52.765 52.765 40.9531 52.765 26.3825C52.765 11.8118 40.9531 0 26.3825 0C11.8118 0 0 11.8118 0 26.3825C0 40.9531 11.8118 52.765 26.3825 52.765Z" fill="url(#paint0_linear_57_353)"/>
<path fill-rule="evenodd" clip-rule="evenodd" d="M11.9422 26.104C19.6333 22.7531 24.7618 20.544 27.3279 19.4767C34.6546 16.4293 36.177 15.8999 37.1693 15.8824C37.3876 15.8786 37.8756 15.9327 38.1917 16.1892C38.4586 16.4057 38.532 16.6983 38.5671 16.9036C38.6023 17.109 38.646 17.5767 38.6113 17.9422C38.2142 22.1139 36.4962 32.2375 35.6222 36.9099C35.2524 38.8869 34.5242 39.5498 33.8192 39.6147C32.2872 39.7557 31.1238 38.6022 29.6399 37.6295C27.3179 36.1074 26.0061 35.1599 23.7522 33.6746C21.1474 31.9581 22.836 31.0147 24.3204 29.4728C24.7089 29.0693 31.4593 22.9294 31.59 22.3724C31.6063 22.3027 31.6215 22.043 31.4672 21.9059C31.3129 21.7688 31.0853 21.8157 30.921 21.853C30.6881 21.9058 26.9786 24.3576 19.7927 29.2084C18.7398 29.9314 17.7861 30.2836 16.9316 30.2652C15.9896 30.2448 14.1776 29.7326 12.8305 29.2947C11.1783 28.7576 9.8652 28.4737 9.97955 27.5616C10.0391 27.0865 10.6933 26.6006 11.9422 26.104Z" fill="black"/>
</g>
<defs>
<linearGradient id="paint0_linear_57_353" x1="26.3825" y1="0" x2="26.3825" y2="52.3736" gradientUnits="userSpaceOnUse">
<stop stop-color="white"/>
<stop offset="1" stop-color="white"/>
</linearGradient>
<clipPath id="clip0_57_353">
<rect width="52.765" height="52.765" fill="white"/>
</clipPath>
</defs>
</svg>
