<svg width="53" height="53" viewBox="0 0 53 53" fill="none" xmlns="http://www.w3.org/2000/svg">
<path d="M2 8C2 4.13401 5.13401 1 9 1H45C48.866 1 52 4.13401 52 8V44C52 47.866 48.866 51 45 51H9C5.13401 51 2 47.866 2 44V8Z" fill="white"/>
<path d="M20 14.5C20 16.9853 17.9853 19 15.5 19C13.0147 19 11 16.9853 11 14.5C11 12.0147 13.0147 10 15.5 10C17.9853 10 20 12.0147 20 14.5Z" fill="black"/>
<path d="M12 22C12 21.4477 12.4477 21 13 21H18C18.5523 21 19 21.4477 19 22V41C19 41.5523 18.5523 42 18 42H13C12.4477 42 12 41.5523 12 41V22Z" fill="black"/>
<path d="M23 21L27.5 21C28.0523 21 28.5 21.4477 28.5 22V23C30.5 20.5 34.1667 20.3333 36 20.5C41.7154 21.0195 42.6667 26.8333 42.5 30L42.5 41C42.5 41.5523 42.0523 42 41.5 42L37 42C36.4477 42 36 41.5523 36 41V30C35.8333 28.6667 34.9 26 32.5 26C30.1 26 28.6667 29 28.5 30V41C28.5 41.5523 28.0523 42 27.5 42L23 42C22.4477 42 22 41.5523 22 41V22C22 21.4477 22.4477 21 23 21Z" fill="black"/>
</svg>
