<svg width="75" height="102" viewBox="0 0 75 102" fill="none" xmlns="http://www.w3.org/2000/svg">
<path d="M74.3176 49.0556L5.2905 9.20312V88.9075L74.3176 49.0556Z" fill="#0E1120"/>
<path d="M69.0262 39.852L-2.28882e-05 -0.000488281V79.7039L69.0262 39.852Z" fill="white"/>
<path d="M34.1962 39.8523L17.415 30.1636V49.5405L34.1962 39.8523Z" fill="#8489CD"/>
<path d="M16.944 94.3816L17.5297 96.2245C18.2345 98.4456 17.6355 100.308 15.7019 101.451C13.7684 102.596 12.3631 101.921 11.6583 99.6997L9.36658 92.4844C8.6611 90.2641 9.26015 88.4018 11.1937 87.2574C13.1266 86.1132 14.5318 86.7888 15.238 89.0092L15.6662 90.3569L13.8041 91.4595L13.3318 89.9728C13.017 88.9818 12.504 88.8372 11.8769 89.2086C11.2504 89.5795 10.9764 90.1894 11.2912 91.1797L13.6715 98.6731C13.9863 99.6654 14.4936 99.7888 15.1194 99.4179C15.7465 99.0473 16.0263 98.457 15.7121 97.466L15.0825 95.4834L16.944 94.3816Z" fill="white"/>
<path d="M18.3897 85.5426L19.7433 89.8047L20.5132 89.3489C21.2473 88.915 21.5813 88.2924 21.2282 87.1821L20.7942 85.8139C20.4788 84.8229 20.0365 84.5675 19.338 84.981L18.3897 85.5426ZM24.3159 96.1654C24.0948 95.8717 23.9546 95.6959 23.5951 94.5672L22.9024 92.385C22.4932 91.0965 21.9484 90.855 21.0536 91.3845L20.373 91.7865L22.1676 97.4368L20.1984 98.6026L15.7915 84.7248L18.7625 82.9665C20.8032 81.7589 22.014 82.2904 22.694 84.431L23.04 85.5214C23.4938 86.9491 23.3778 88.1236 22.6462 89.0992C23.7742 88.9717 24.4313 89.8329 24.8901 91.2807L25.5707 93.4206C25.7849 94.095 25.9595 94.5799 26.3202 94.979L24.3159 96.1654Z" fill="white"/>
<path d="M27.327 85.2221L29.8686 83.7175L30.4982 85.7L27.9567 87.2042L29.7761 92.9333L27.8069 94.0989L23.3994 80.2226L28.6086 77.1392L29.2383 79.1213L25.9989 81.0389L27.327 85.2221Z" fill="white"/>
<path d="M29.3969 76.6735L35.4831 73.0708L36.1127 75.0529L34.0543 76.2715L37.8322 88.166L35.8629 89.3315L32.0851 77.437L30.0266 78.6549L29.3969 76.6735Z" fill="white"/>
<path d="M40.6036 70.04L47.2187 81.3622L45.6866 67.0313L46.4565 66.5757L48.1434 82.0632L46.9255 82.7834L39.7617 70.5384L40.6036 70.04Z" fill="white"/>
<path d="M48.9456 65.1021L53.3525 78.979L52.5291 79.466L48.1216 65.5896L48.9456 65.1021Z" fill="white"/>
<path d="M57.671 75.4335C59.0673 74.6071 59.3063 73.2177 58.822 71.6907L56.58 64.6333C56.095 63.107 55.1709 62.406 53.7924 63.2217L51.8774 64.3548L55.7559 76.5673L57.671 75.4335ZM53.5458 62.3792C55.4794 61.2346 56.7673 62.1447 57.4155 64.1859L59.632 71.1649C60.2807 73.2063 59.8862 75.1117 57.9533 76.2556L55.197 77.8876L50.7895 64.0101L53.5458 62.3792Z" fill="white"/>
<path d="M64.3755 63.5999L64.64 64.4329L61.2215 66.4556L63.0601 72.2442L67.1771 69.8078L67.4415 70.6407L62.5006 73.5645L58.0937 59.6876L63.034 56.7637L63.2985 57.596L59.1816 60.0323L60.9571 65.6233L64.3755 63.5999Z" fill="white"/>
<path d="M68.9083 65.815C69.3869 67.3222 70.2759 68.1143 71.6544 67.2986C73.0507 66.472 73.2527 65.0337 72.7741 63.5271L70.4824 56.311C70.0038 54.8045 69.0969 54.0225 67.7 54.8484C66.3222 55.6648 66.1373 57.093 66.6159 58.5995L68.9083 65.815ZM65.8117 59.1463C65.1693 57.1242 65.5383 55.1397 67.4355 54.0161C69.3684 52.8722 70.6825 53.8613 71.3249 55.8828L73.579 62.9797C74.2214 65.0024 73.8518 66.9876 71.9189 68.1315C70.0216 69.2544 68.7075 68.2654 68.0651 66.2432L65.8117 59.1463Z" fill="white"/>
</svg>
