<svg width="29" height="359" viewBox="0 0 29 359" fill="none" xmlns="http://www.w3.org/2000/svg">
<g opacity="0.501842" clip-path="url(#clip0_57_43)">
<path d="M10.3 350.005L5.81799 346.441H4.89999V354.541H6.05199V348.097L10.426 351.589H11.38V350.689C11.38 348.349 12.37 347.287 13.882 347.287C15.448 347.287 16.42 348.439 16.42 350.527C16.42 352.165 15.808 353.623 14.962 354.433L15.988 355.063C16.978 354.091 17.608 352.345 17.608 350.527C17.608 347.485 15.988 345.955 13.882 345.955C11.866 345.955 10.444 347.305 10.3 350.005Z" fill="white"/>
<path d="M13.036 325.418V327.938H10.12V329.198H13.036V334.67L4.89999 328.226V329.666L13.252 336.344H14.188V329.234H17.5V327.938H14.188V325.418H13.036Z" fill="white"/>
<path d="M17.59 314.904C17.59 314.382 17.158 313.932 16.6 313.932C16.042 313.932 15.628 314.382 15.628 314.904C15.628 315.426 16.042 315.858 16.6 315.858C17.158 315.858 17.59 315.426 17.59 314.904Z" fill="white"/>
<path d="M17.608 299.233C17.608 296.317 15.214 294.193 11.2 294.193C7.18599 294.193 4.79199 296.317 4.79199 299.233C4.79199 302.149 7.18599 304.255 11.2 304.255C15.214 304.255 17.608 302.149 17.608 299.233ZM16.42 299.233C16.42 301.429 14.566 302.941 11.2 302.941C7.83399 302.941 5.97999 301.429 5.97999 299.233C5.97999 297.037 7.83399 295.525 11.2 295.525C14.566 295.525 16.42 297.037 16.42 299.233Z" fill="white"/>
<path d="M10.066 281.025V282.645L6.05199 282.213V276.453H4.89999V283.347L11.218 283.995V281.313C11.218 278.109 12.226 277.101 13.846 277.101C15.376 277.101 16.42 278.235 16.42 280.377C16.42 281.997 15.808 283.437 14.962 284.247L15.988 284.877C16.978 283.905 17.608 282.177 17.608 280.359C17.608 277.281 15.934 275.787 13.792 275.787C11.56 275.787 10.066 277.227 10.066 281.025Z" fill="white"/>
<path d="M17.608 261.12C17.608 258.204 15.214 256.08 11.2 256.08C7.18599 256.08 4.79199 258.204 4.79199 261.12C4.79199 264.036 7.18599 266.142 11.2 266.142C15.214 266.142 17.608 264.036 17.608 261.12ZM16.42 261.12C16.42 263.316 14.566 264.828 11.2 264.828C7.83399 264.828 5.97999 263.316 5.97999 261.12C5.97999 258.924 7.83399 257.412 11.2 257.412C14.566 257.412 16.42 258.924 16.42 261.12Z" fill="white"/>
<path d="M4.89999 246.998H6.05199V244.028H17.5V242.732H4.89999V246.998Z" fill="white"/>
<path d="M4.89999 200.677H15.124L4.89999 208.795V209.893H17.5V208.561H7.27599L17.5 200.461V199.363H4.89999V200.677Z" fill="white"/>
<path d="M10.678 167.502V170.85H7.38399V171.984H10.678V175.332H11.74V171.984H15.016V170.85H11.74V167.502H10.678Z" fill="white"/>
<path d="M4.89999 158.076H6.05199V155.106H17.5V153.81H4.89999V158.076Z" fill="white"/>
<path d="M4.89999 143.572H6.05199V140.602H17.5V139.306H4.89999V143.572Z" fill="white"/>
<path d="M10.894 121.076C10.39 119.78 9.43599 119.06 8.12199 119.06C6.06999 119.06 4.79199 120.842 4.79199 123.506C4.79199 126.17 6.06999 127.916 8.12199 127.916C9.43599 127.916 10.39 127.214 10.894 125.936C11.416 127.502 12.478 128.366 13.99 128.366C16.222 128.366 17.608 126.53 17.608 123.506C17.608 120.5 16.222 118.61 13.99 118.61C12.496 118.61 11.416 119.492 10.894 121.076ZM8.15799 126.62C6.75399 126.62 5.88999 125.414 5.88999 123.506C5.88999 121.616 6.75399 120.374 8.17599 120.374C9.54399 120.374 10.426 121.544 10.426 123.506C10.426 125.468 9.54399 126.62 8.15799 126.62ZM16.51 123.506C16.51 125.738 15.538 127.052 13.972 127.052C12.424 127.052 11.452 125.738 11.452 123.506C11.452 121.274 12.424 119.942 13.972 119.942C15.538 119.942 16.51 121.274 16.51 123.506Z" fill="white"/>
<path d="M17.59 107.668C17.59 107.146 17.158 106.696 16.6 106.696C16.042 106.696 15.628 107.146 15.628 107.668C15.628 108.19 16.042 108.622 16.6 108.622C17.158 108.622 17.59 108.19 17.59 107.668Z" fill="white"/>
<path d="M16.348 94.9759L12.136 90.6919C10.48 88.9999 9.39999 88.6219 8.19399 88.6219C6.08799 88.6219 4.79199 90.2419 4.79199 92.7979C4.79199 94.7239 5.43999 96.2899 6.59199 97.2619L7.38399 96.3439C6.42999 95.5159 5.97999 94.3819 5.97999 92.9059C5.97999 90.9799 6.87999 89.9539 8.33799 89.9539C9.20199 89.9539 10.048 90.2239 11.452 91.6459L16.582 96.8839H17.5V88.0459H16.348V94.9759Z" fill="white"/>
<path d="M13.036 68.1313V70.6513H10.12V71.9113H13.036V77.3833L4.89999 70.9393V72.3793L13.252 79.0573H14.188V71.9473H17.5V70.6513H14.188V68.1313H13.036Z" fill="white"/>
<path d="M13.036 48.2309V50.7509H10.12V52.0109H13.036V57.4829L4.89999 51.0389V52.4789L13.252 59.1569H14.188V52.0469H17.5V50.7509H14.188V48.2309H13.036Z" fill="white"/>
<path d="M9.95799 33.8205C9.95799 35.5665 10.732 37.0425 12.118 37.6726C11.74 37.7085 11.38 37.7266 11.092 37.7266C7.67199 37.7266 5.92599 35.9805 5.92599 33.2626C5.92599 32.3266 6.08799 31.4625 6.51999 30.8145L5.47599 30.2925C4.98999 31.0845 4.79199 32.1465 4.79199 33.2805C4.79199 36.7005 7.02399 39.0406 11.308 39.0406C15.286 39.0406 17.608 37.2225 17.608 33.8745C17.608 31.4265 16.096 29.5725 13.738 29.5725C11.434 29.5725 9.95799 31.3185 9.95799 33.8205ZM16.51 33.9286C16.51 36.1066 15.196 37.2585 13.81 37.2585C12.244 37.2585 11.056 35.9445 11.056 34.0185C11.056 32.0745 12.118 30.8505 13.774 30.8505C15.448 30.8505 16.51 32.1106 16.51 33.9286Z" fill="white"/>
<path d="M17.5 0.893799L13.18 3.9718C12.586 2.1358 11.2 1.0918 9.21999 1.0918C6.51999 1.0918 4.89999 3.0358 4.89999 6.2398V10.9558H17.5V9.6238H13.504V6.2398C13.504 5.8798 13.486 5.5558 13.45 5.2318L17.5 2.3518V0.893799ZM12.37 6.2758V9.6238H6.05199V6.2758C6.05199 3.7558 7.20399 2.4238 9.21999 2.4238C11.2 2.4238 12.37 3.7558 12.37 6.2758Z" fill="white"/>
<circle cx="11" cy="40.5" r="2.5" stroke="white"/>
</g>
<defs>
<clipPath id="clip0_57_43">
<rect width="29" height="359" fill="white"/>
</clipPath>
</defs>
</svg>
